<svg width="32" height="23" viewBox="0 0 32 23" fill="none" xmlns="http://www.w3.org/2000/svg">
<path d="M26.8837 4.51223C30.1802 8.39789 31.6209 16.0437 25.3034 19.7955C20.4901 22.6541 14.4768 22.3764 13.4236 17.2432C16.2426 17.4744 18.4145 16.9431 19.6162 15.2679C20.8179 13.5927 21.5865 10.9553 20.46 9.30644C19.3335 7.65756 15.7579 6.08291 12.394 7.56953C12.1419 2.59358 22.3895 -0.785003 26.8837 4.51223Z" stroke="#FFC6C6" stroke-width="2"/>
<path d="M6.29407 8L7.41664 11.4549H11.0493L8.11042 13.5902L9.23299 17.0451L6.29407 14.9098L3.35514 17.0451L4.47771 13.5902L1.53878 11.4549H5.1715L6.29407 8Z" stroke="#FFC6C6"/>
</svg>
