<?xml version="1.0" encoding="UTF-8" standalone="no"?>
<!-- Created with Inkscape (http://www.inkscape.org/) -->

<svg
   version="1.1"
   id="svg1"
   width="781.42267"
   height="1041.0979"
   viewBox="0 0 781.42266 1041.0979"
   sodipodi:docname="portrait.svg"
   inkscape:export-filename="portrait.svg"
   inkscape:export-xdpi="96"
   inkscape:export-ydpi="96"
   inkscape:version="1.4.3 (0d15f75, 2025-12-25)"
   xmlns:inkscape="http://www.inkscape.org/namespaces/inkscape"
   xmlns:sodipodi="http://sodipodi.sourceforge.net/DTD/sodipodi-0.dtd"
   xmlns="http://www.w3.org/2000/svg"
   xmlns:svg="http://www.w3.org/2000/svg">
  <defs
     id="defs1">
    <clipPath
       clipPathUnits="userSpaceOnUse"
       id="clipPath1">
      <path
         d="m 0,108.89 h 595.275 v 684 H 0 Z"
         transform="matrix(0.00109649,0,0,-0.00146199,0.11549708,1.1591956)"
         id="path1" />
    </clipPath>
    <clipPath
       clipPathUnits="userSpaceOnUse"
       id="clipPath4">
      <path
         d="M 0,841.89 H 595.276 V 0 H 0 Z"
         transform="translate(-350.66671,-311.87661)"
         id="path4" />
    </clipPath>
    <clipPath
       clipPathUnits="userSpaceOnUse"
       id="clipPath6">
      <path
         d="M 0,841.89 H 595.276 V 0 H 0 Z"
         transform="translate(-205.99861,-285.0754)"
         id="path6" />
    </clipPath>
    <clipPath
       clipPathUnits="userSpaceOnUse"
       id="clipPath8">
      <path
         d="M 0,841.89 H 595.276 V 0 H 0 Z"
         transform="translate(-236.4556,-301.70751)"
         id="path8" />
    </clipPath>
    <clipPath
       clipPathUnits="userSpaceOnUse"
       id="clipPath10">
      <path
         d="M 0,841.89 H 595.276 V 0 H 0 Z"
         transform="translate(-301.89151,-239.79721)"
         id="path10" />
    </clipPath>
    <clipPath
       clipPathUnits="userSpaceOnUse"
       id="clipPath12">
      <path
         d="M 0,841.89 H 595.276 V 0 H 0 Z"
         transform="translate(-249.98271,-273.8116)"
         id="path12" />
    </clipPath>
    <clipPath
       clipPathUnits="userSpaceOnUse"
       id="clipPath14">
      <path
         d="M 0,841.89 H 595.276 V 0 H 0 Z"
         transform="translate(-170.1169,-313.74301)"
         id="path14" />
    </clipPath>
    <clipPath
       clipPathUnits="userSpaceOnUse"
       id="clipPath16">
      <path
         d="M 0,841.89 H 595.276 V 0 H 0 Z"
         transform="translate(-232.549,-239.6185)"
         id="path16" />
    </clipPath>
    <clipPath
       clipPathUnits="userSpaceOnUse"
       id="clipPath18">
      <path
         d="M 0,841.89 H 595.276 V 0 H 0 Z"
         transform="translate(-378.59161,-205.2052)"
         id="path18" />
    </clipPath>
    <clipPath
       clipPathUnits="userSpaceOnUse"
       id="clipPath20">
      <path
         d="M 0,841.89 H 595.276 V 0 H 0 Z"
         transform="translate(-436.58541,-221.12401)"
         id="path20" />
    </clipPath>
    <clipPath
       clipPathUnits="userSpaceOnUse"
       id="clipPath22">
      <path
         d="M 0,841.89 H 595.276 V 0 H 0 Z"
         transform="translate(-236.7391,-341.32451)"
         id="path22" />
    </clipPath>
    <clipPath
       clipPathUnits="userSpaceOnUse"
       id="clipPath24">
      <path
         d="M 0,841.89 H 595.276 V 0 H 0 Z"
         transform="translate(-248.7391,-293.80291)"
         id="path24" />
    </clipPath>
    <clipPath
       clipPathUnits="userSpaceOnUse"
       id="clipPath25">
      <path
         d="m 218.7,305.42 h 40.158 V 223.814 H 218.7 Z"
         transform="translate(-218.6998,-305.41961)"
         id="path25" />
    </clipPath>
    <clipPath
       clipPathUnits="userSpaceOnUse"
       id="clipPath27">
      <path
         d="M 0,841.89 H 595.276 V 0 H 0 Z"
         transform="matrix(1.3333333,0,0,-1.3333333,0,1122.52)"
         id="path27" />
    </clipPath>
    <clipPath
       clipPathUnits="userSpaceOnUse"
       id="clipPath28">
      <path
         d="m 422.046,301.707 h 27.458 v -78.385 h -27.458 z"
         transform="translate(-423.99221,-301.70751)"
         id="path28" />
    </clipPath>
    <clipPath
       clipPathUnits="userSpaceOnUse"
       id="clipPath30">
      <path
         d="M 0,841.89 H 595.276 V 0 H 0 Z"
         transform="matrix(1.3333333,0,0,-1.3333333,0,1122.52)"
         id="path30" />
    </clipPath>
    <clipPath
       clipPathUnits="userSpaceOnUse"
       id="clipPath32">
      <path
         d="M 0,841.89 H 595.276 V 0 H 0 Z"
         transform="translate(-236.4556,-301.70751)"
         id="path32" />
    </clipPath>
    <clipPath
       clipPathUnits="userSpaceOnUse"
       id="clipPath34">
      <path
         d="M 0,841.89 H 595.276 V 0 H 0 Z"
         transform="translate(-339.66241,-650.96801)"
         id="path34" />
    </clipPath>
    <clipPath
       clipPathUnits="userSpaceOnUse"
       id="clipPath36">
      <path
         d="M 0,841.89 H 595.276 V 0 H 0 Z"
         transform="translate(-192.10911,-371.24171)"
         id="path36" />
    </clipPath>
    <clipPath
       clipPathUnits="userSpaceOnUse"
       id="clipPath38">
      <path
         d="M 0,841.89 H 595.276 V 0 H 0 Z"
         transform="translate(-354.67261,-328.33241)"
         id="path38" />
    </clipPath>
    <clipPath
       clipPathUnits="userSpaceOnUse"
       id="clipPath40">
      <path
         d="M 0,841.89 H 595.276 V 0 H 0 Z"
         transform="translate(-365.23901,-342.41741)"
         id="path40" />
    </clipPath>
    <clipPath
       clipPathUnits="userSpaceOnUse"
       id="clipPath42">
      <path
         d="M 0,841.89 H 595.276 V 0 H 0 Z"
         transform="translate(-173.57601,-425.61851)"
         id="path42" />
    </clipPath>
    <clipPath
       clipPathUnits="userSpaceOnUse"
       id="clipPath44">
      <path
         d="M 0,841.89 H 595.276 V 0 H 0 Z"
         transform="translate(-343.71231,-651.83312)"
         id="path44" />
    </clipPath>
    <clipPath
       clipPathUnits="userSpaceOnUse"
       id="clipPath46">
      <path
         d="M 0,841.89 H 595.276 V 0 H 0 Z"
         transform="translate(-363.93961,-365.02601)"
         id="path46" />
    </clipPath>
    <clipPath
       clipPathUnits="userSpaceOnUse"
       id="clipPath48">
      <path
         d="M 0,841.89 H 595.276 V 0 H 0 Z"
         transform="translate(-326.18191,-582.54061)"
         id="path48" />
    </clipPath>
    <clipPath
       clipPathUnits="userSpaceOnUse"
       id="clipPath50">
      <path
         d="M 0,841.89 H 595.276 V 0 H 0 Z"
         transform="translate(-227.4502,-483.32501)"
         id="path50" />
    </clipPath>
    <clipPath
       clipPathUnits="userSpaceOnUse"
       id="clipPath52">
      <path
         d="M 0,841.89 H 595.276 V 0 H 0 Z"
         transform="translate(-227.4502,-525.16811)"
         id="path52" />
    </clipPath>
    <clipPath
       clipPathUnits="userSpaceOnUse"
       id="clipPath54">
      <path
         d="M 0,841.89 H 595.276 V 0 H 0 Z"
         transform="translate(-281.812,-378.24961)"
         id="path54" />
    </clipPath>
    <clipPath
       clipPathUnits="userSpaceOnUse"
       id="clipPath56">
      <path
         d="M 0,841.89 H 595.276 V 0 H 0 Z"
         transform="translate(-362.15821,-446.78851)"
         id="path56" />
    </clipPath>
    <clipPath
       clipPathUnits="userSpaceOnUse"
       id="clipPath58">
      <path
         d="M 0,841.89 H 595.276 V 0 H 0 Z"
         transform="translate(-301.07481,-407.80221)"
         id="path58" />
    </clipPath>
    <clipPath
       clipPathUnits="userSpaceOnUse"
       id="clipPath60">
      <path
         d="M 0,841.89 H 595.276 V 0 H 0 Z"
         transform="translate(-268.8682,-424.97001)"
         id="path60" />
    </clipPath>
    <clipPath
       clipPathUnits="userSpaceOnUse"
       id="clipPath62">
      <path
         d="M 0,841.89 H 595.276 V 0 H 0 Z"
         transform="translate(-169.909,-431.59161)"
         id="path62" />
    </clipPath>
    <clipPath
       clipPathUnits="userSpaceOnUse"
       id="clipPath64">
      <path
         d="M 0,841.89 H 595.276 V 0 H 0 Z"
         transform="translate(-299.31981,-420.94491)"
         id="path64" />
    </clipPath>
    <clipPath
       clipPathUnits="userSpaceOnUse"
       id="clipPath66">
      <path
         d="M 0,841.89 H 595.276 V 0 H 0 Z"
         transform="translate(-315.60471,-556.80622)"
         id="path66" />
    </clipPath>
    <clipPath
       clipPathUnits="userSpaceOnUse"
       id="clipPath68">
      <path
         d="M 0,841.89 H 595.276 V 0 H 0 Z"
         transform="translate(-287.39571,-344.40621)"
         id="path68" />
    </clipPath>
    <clipPath
       clipPathUnits="userSpaceOnUse"
       id="clipPath70">
      <path
         d="M 0,841.89 H 595.276 V 0 H 0 Z"
         transform="translate(-343.69801,-373.32661)"
         id="path70" />
    </clipPath>
    <clipPath
       clipPathUnits="userSpaceOnUse"
       id="clipPath72">
      <path
         d="M 0,841.89 H 595.276 V 0 H 0 Z"
         transform="translate(-343.69801,-565.70771)"
         id="path72" />
    </clipPath>
    <clipPath
       clipPathUnits="userSpaceOnUse"
       id="clipPath74">
      <path
         d="M 0,841.89 H 595.276 V 0 H 0 Z"
         transform="translate(-267.63171,-428.23301)"
         id="path74" />
    </clipPath>
    <clipPath
       clipPathUnits="userSpaceOnUse"
       id="clipPath76">
      <path
         d="M 0,841.89 H 595.276 V 0 H 0 Z"
         transform="translate(-254.7301,-377.19591)"
         id="path76" />
    </clipPath>
    <clipPath
       clipPathUnits="userSpaceOnUse"
       id="clipPath78">
      <path
         d="M 0,841.89 H 595.276 V 0 H 0 Z"
         transform="translate(-272.70241,-347.96941)"
         id="path78" />
    </clipPath>
    <clipPath
       clipPathUnits="userSpaceOnUse"
       id="clipPath80">
      <path
         d="M 0,841.89 H 595.276 V 0 H 0 Z"
         transform="translate(-271.77231,-316.57571)"
         id="path80" />
    </clipPath>
    <clipPath
       clipPathUnits="userSpaceOnUse"
       id="clipPath82">
      <path
         d="M 0,841.89 H 595.276 V 0 H 0 Z"
         transform="translate(-270.99021,-345.76041)"
         id="path82" />
    </clipPath>
    <clipPath
       clipPathUnits="userSpaceOnUse"
       id="clipPath84">
      <path
         d="M 0,841.89 H 595.276 V 0 H 0 Z"
         transform="translate(-351.71071,-424.95101)"
         id="path84" />
    </clipPath>
    <clipPath
       clipPathUnits="userSpaceOnUse"
       id="clipPath86">
      <path
         d="M 0,841.89 H 595.276 V 0 H 0 Z"
         transform="translate(-217.54621,-428.31481)"
         id="path86" />
    </clipPath>
    <clipPath
       clipPathUnits="userSpaceOnUse"
       id="clipPath88">
      <path
         d="M 0,841.89 H 595.276 V 0 H 0 Z"
         transform="translate(-232.549,-552.93851)"
         id="path88" />
    </clipPath>
    <clipPath
       clipPathUnits="userSpaceOnUse"
       id="clipPath90">
      <path
         d="M 0,841.89 H 595.276 V 0 H 0 Z"
         transform="translate(-236.4556,-556.80622)"
         id="path90" />
    </clipPath>
    <clipPath
       clipPathUnits="userSpaceOnUse"
       id="clipPath92">
      <path
         d="M 0,841.89 H 595.276 V 0 H 0 Z"
         transform="translate(-254.88471,-378.70601)"
         id="path92" />
    </clipPath>
    <clipPath
       clipPathUnits="userSpaceOnUse"
       id="clipPath94">
      <path
         d="M 0,841.89 H 595.276 V 0 H 0 Z"
         transform="translate(-289.14321,-371.16851)"
         id="path94" />
    </clipPath>
    <clipPath
       clipPathUnits="userSpaceOnUse"
       id="clipPath96">
      <path
         d="M 0,841.89 H 595.276 V 0 H 0 Z"
         transform="translate(-245.15221,-473.01171)"
         id="path96" />
    </clipPath>
    <clipPath
       clipPathUnits="userSpaceOnUse"
       id="clipPath98">
      <path
         d="M 0,841.89 H 595.276 V 0 H 0 Z"
         transform="translate(-301.89151,-479.99531)"
         id="path98" />
    </clipPath>
    <clipPath
       clipPathUnits="userSpaceOnUse"
       id="clipPath100">
      <path
         d="M 0,841.89 H 595.276 V 0 H 0 Z"
         transform="translate(-264.742,-454.28241)"
         id="path100" />
    </clipPath>
    <clipPath
       clipPathUnits="userSpaceOnUse"
       id="clipPath102">
      <path
         d="M 0,841.89 H 595.276 V 0 H 0 Z"
         transform="translate(-266.79831,-462.31441)"
         id="path102" />
    </clipPath>
    <clipPath
       clipPathUnits="userSpaceOnUse"
       id="clipPath104">
      <path
         d="M 0,841.89 H 595.276 V 0 H 0 Z"
         transform="translate(-266.79831,-462.31441)"
         id="path104" />
    </clipPath>
    <clipPath
       clipPathUnits="userSpaceOnUse"
       id="clipPath106">
      <path
         d="M 0,841.89 H 595.276 V 0 H 0 Z"
         transform="translate(-260.41611,-467.69651)"
         id="path106" />
    </clipPath>
    <clipPath
       clipPathUnits="userSpaceOnUse"
       id="clipPath108">
      <path
         d="M 0,841.89 H 595.276 V 0 H 0 Z"
         transform="translate(-263.11341,-461.11961)"
         id="path108" />
    </clipPath>
    <clipPath
       clipPathUnits="userSpaceOnUse"
       id="clipPath110">
      <path
         d="M 0,841.89 H 595.276 V 0 H 0 Z"
         transform="translate(-272.09221,-418.91601)"
         id="path110" />
    </clipPath>
    <clipPath
       clipPathUnits="userSpaceOnUse"
       id="clipPath112">
      <path
         d="M 0,841.89 H 595.276 V 0 H 0 Z"
         transform="translate(-269.15121,-402.83331)"
         id="path112" />
    </clipPath>
    <clipPath
       clipPathUnits="userSpaceOnUse"
       id="clipPath114">
      <path
         d="M 0,841.89 H 595.276 V 0 H 0 Z"
         transform="translate(-278.76021,-374.05551)"
         id="path114" />
    </clipPath>
    <clipPath
       clipPathUnits="userSpaceOnUse"
       id="clipPath116">
      <path
         d="M 0,841.89 H 595.276 V 0 H 0 Z"
         transform="translate(-260.96851,-376.25841)"
         id="path116" />
    </clipPath>
    <clipPath
       clipPathUnits="userSpaceOnUse"
       id="clipPath118">
      <path
         d="M 0,841.89 H 595.276 V 0 H 0 Z"
         transform="translate(-266.5042,-458.66971)"
         id="path118" />
    </clipPath>
    <clipPath
       clipPathUnits="userSpaceOnUse"
       id="clipPath120">
      <path
         d="M 0,841.89 H 595.276 V 0 H 0 Z"
         transform="translate(-280.92471,-317.78161)"
         id="path120" />
    </clipPath>
    <clipPath
       clipPathUnits="userSpaceOnUse"
       id="clipPath121">
      <path
         d="m 246.809,348.064 h 70.006 v -25.451 h -70.006 z"
         transform="translate(-246.81381,-343.88981)"
         id="path121" />
    </clipPath>
    <clipPath
       clipPathUnits="userSpaceOnUse"
       id="clipPath123">
      <path
         d="M 0,841.89 H 595.276 V 0 H 0 Z"
         transform="matrix(1.3333333,0,0,-1.3333333,0,1122.52)"
         id="path123" />
    </clipPath>
    <clipPath
       clipPathUnits="userSpaceOnUse"
       id="clipPath125">
      <path
         d="M 0,841.89 H 595.276 V 0 H 0 Z"
         transform="translate(-271.95651,-335.33821)"
         id="path125" />
    </clipPath>
    <clipPath
       clipPathUnits="userSpaceOnUse"
       id="clipPath127">
      <path
         d="M 0,841.89 H 595.276 V 0 H 0 Z"
         transform="translate(-248.47831,-343.75941)"
         id="path127" />
    </clipPath>
    <clipPath
       clipPathUnits="userSpaceOnUse"
       id="clipPath129">
      <path
         d="M 0,841.89 H 595.276 V 0 H 0 Z"
         transform="translate(-275.47,-336.02981)"
         id="path129" />
    </clipPath>
    <clipPath
       clipPathUnits="userSpaceOnUse"
       id="clipPath130">
      <path
         d="m 258.5,336.731 h 41.367 V 326.632 H 258.5 Z"
         transform="translate(-258.75091,-335.73261)"
         id="path130" />
    </clipPath>
    <clipPath
       clipPathUnits="userSpaceOnUse"
       id="clipPath132">
      <path
         d="M 0,841.89 H 595.276 V 0 H 0 Z"
         transform="matrix(1.3333333,0,0,-1.3333333,0,1122.52)"
         id="path132" />
    </clipPath>
    <clipPath
       clipPathUnits="userSpaceOnUse"
       id="clipPath134">
      <path
         d="M 0,841.89 H 595.276 V 0 H 0 Z"
         transform="translate(-260.63281,-335.91291)"
         id="path134" />
    </clipPath>
    <clipPath
       clipPathUnits="userSpaceOnUse"
       id="clipPath136">
      <path
         d="M 0,841.89 H 595.276 V 0 H 0 Z"
         transform="translate(-240.31041,-437.91441)"
         id="path136" />
    </clipPath>
    <clipPath
       clipPathUnits="userSpaceOnUse"
       id="clipPath138">
      <path
         d="M 0,841.89 H 595.276 V 0 H 0 Z"
         transform="translate(-201.3586,-453.73671)"
         id="path138" />
    </clipPath>
    <clipPath
       clipPathUnits="userSpaceOnUse"
       id="clipPath140">
      <path
         d="M 0,841.89 H 595.276 V 0 H 0 Z"
         transform="translate(-204.69591,-455.09741)"
         id="path140" />
    </clipPath>
    <clipPath
       clipPathUnits="userSpaceOnUse"
       id="clipPath142">
      <path
         d="M 0,841.89 H 595.276 V 0 H 0 Z"
         transform="translate(-221.42961,-450.19131)"
         id="path142" />
    </clipPath>
    <clipPath
       clipPathUnits="userSpaceOnUse"
       id="clipPath144">
      <path
         d="M 0,841.89 H 595.276 V 0 H 0 Z"
         transform="translate(-214.90101,-444.95451)"
         id="path144" />
    </clipPath>
    <clipPath
       clipPathUnits="userSpaceOnUse"
       id="clipPath146">
      <path
         d="M 0,841.89 H 595.276 V 0 H 0 Z"
         transform="translate(-208.46551,-450.69641)"
         id="path146" />
    </clipPath>
    <clipPath
       clipPathUnits="userSpaceOnUse"
       id="clipPath147">
      <path
         d="m 199.398,456.479 h 47.739 v -9.419 h -47.739 z"
         transform="translate(-222.0853,-448.59301)"
         id="path147" />
    </clipPath>
    <clipPath
       clipPathUnits="userSpaceOnUse"
       id="clipPath149">
      <path
         d="M 0,841.89 H 595.276 V 0 H 0 Z"
         transform="matrix(1.3333333,0,0,-1.3333333,0,1122.52)"
         id="path149" />
    </clipPath>
    <clipPath
       clipPathUnits="userSpaceOnUse"
       id="clipPath151">
      <path
         d="M 0,841.89 H 595.276 V 0 H 0 Z"
         transform="translate(-242.85391,-455.91521)"
         id="path151" />
    </clipPath>
    <clipPath
       clipPathUnits="userSpaceOnUse"
       id="clipPath153">
      <path
         d="M 0,841.89 H 595.276 V 0 H 0 Z"
         transform="translate(-231.63031,-456.47871)"
         id="path153" />
    </clipPath>
    <clipPath
       clipPathUnits="userSpaceOnUse"
       id="clipPath155">
      <path
         d="M 0,841.89 H 595.276 V 0 H 0 Z"
         transform="translate(-243.154,-443.67981)"
         id="path155" />
    </clipPath>
    <clipPath
       clipPathUnits="userSpaceOnUse"
       id="clipPath157">
      <path
         d="M 0,841.89 H 595.276 V 0 H 0 Z"
         transform="translate(-199.7262,-455.98061)"
         id="path157" />
    </clipPath>
    <clipPath
       clipPathUnits="userSpaceOnUse"
       id="clipPath159">
      <path
         d="M 0,841.89 H 595.276 V 0 H 0 Z"
         transform="translate(-247.00821,-445.95861)"
         id="path159" />
    </clipPath>
    <clipPath
       clipPathUnits="userSpaceOnUse"
       id="clipPath161">
      <path
         d="M 0,841.89 H 595.276 V 0 H 0 Z"
         transform="translate(-199.60731,-453.60481)"
         id="path161" />
    </clipPath>
    <clipPath
       clipPathUnits="userSpaceOnUse"
       id="clipPath163">
      <path
         d="M 0,841.89 H 595.276 V 0 H 0 Z"
         transform="translate(-326.68891,-432.66321)"
         id="path163" />
    </clipPath>
    <clipPath
       clipPathUnits="userSpaceOnUse"
       id="clipPath165">
      <path
         d="M 0,841.89 H 595.276 V 0 H 0 Z"
         transform="translate(-359.73941,-444.79321)"
         id="path165" />
    </clipPath>
    <clipPath
       clipPathUnits="userSpaceOnUse"
       id="clipPath167">
      <path
         d="M 0,841.89 H 595.276 V 0 H 0 Z"
         transform="translate(-346.92161,-445.57591)"
         id="path167" />
    </clipPath>
    <clipPath
       clipPathUnits="userSpaceOnUse"
       id="clipPath169">
      <path
         d="M 0,841.89 H 595.276 V 0 H 0 Z"
         transform="translate(-337.67211,-443.31461)"
         id="path169" />
    </clipPath>
    <clipPath
       clipPathUnits="userSpaceOnUse"
       id="clipPath171">
      <path
         d="M 0,841.89 H 595.276 V 0 H 0 Z"
         transform="translate(-331.43021,-437.90701)"
         id="path171" />
    </clipPath>
    <clipPath
       clipPathUnits="userSpaceOnUse"
       id="clipPath173">
      <path
         d="M 0,841.89 H 595.276 V 0 H 0 Z"
         transform="translate(-326.15771,-443.25771)"
         id="path173" />
    </clipPath>
    <clipPath
       clipPathUnits="userSpaceOnUse"
       id="clipPath174">
      <path
         d="m 314.804,447.467 h 47.354 v -5.095 h -47.354 z"
         transform="translate(-338.48131,-442.39051)"
         id="path174" />
    </clipPath>
    <clipPath
       clipPathUnits="userSpaceOnUse"
       id="clipPath176">
      <path
         d="M 0,841.89 H 595.276 V 0 H 0 Z"
         transform="matrix(1.3333333,0,0,-1.3333333,0,1122.52)"
         id="path176" />
    </clipPath>
    <clipPath
       clipPathUnits="userSpaceOnUse"
       id="clipPath178">
      <path
         d="M 0,841.89 H 595.276 V 0 H 0 Z"
         transform="translate(-318.94961,-452.13651)"
         id="path178" />
    </clipPath>
    <clipPath
       clipPathUnits="userSpaceOnUse"
       id="clipPath180">
      <path
         d="M 0,841.89 H 595.276 V 0 H 0 Z"
         transform="translate(-314.80441,-445.36811)"
         id="path180" />
    </clipPath>
    <clipPath
       clipPathUnits="userSpaceOnUse"
       id="clipPath182">
      <path
         d="M 0,841.89 H 595.276 V 0 H 0 Z"
         transform="translate(-316.95191,-440.64271)"
         id="path182" />
    </clipPath>
    <clipPath
       clipPathUnits="userSpaceOnUse"
       id="clipPath184">
      <path
         d="M 0,841.89 H 595.276 V 0 H 0 Z"
         transform="translate(-361.66781,-446.78851)"
         id="path184" />
    </clipPath>
    <clipPath
       clipPathUnits="userSpaceOnUse"
       id="clipPath186">
      <path
         d="M 0,841.89 H 595.276 V 0 H 0 Z"
         transform="translate(-313.45191,-443.43501)"
         id="path186" />
    </clipPath>
    <clipPath
       clipPathUnits="userSpaceOnUse"
       id="clipPath188">
      <path
         d="M 0,841.89 H 595.276 V 0 H 0 Z"
         transform="translate(-359.84981,-443.31461)"
         id="path188" />
    </clipPath>
    <clipPath
       clipPathUnits="userSpaceOnUse"
       id="clipPath190">
      <path
         d="M 0,841.89 H 595.276 V 0 H 0 Z"
         transform="translate(-205.81651,-455.41541)"
         id="path190" />
    </clipPath>
    <clipPath
       clipPathUnits="userSpaceOnUse"
       id="clipPath192">
      <path
         d="M 0,841.89 H 595.276 V 0 H 0 Z"
         transform="translate(-210.4198,-454.83321)"
         id="path192" />
    </clipPath>
    <clipPath
       clipPathUnits="userSpaceOnUse"
       id="clipPath194">
      <path
         d="M 0,841.89 H 595.276 V 0 H 0 Z"
         transform="translate(-214.46481,-454.69231)"
         id="path194" />
    </clipPath>
    <clipPath
       clipPathUnits="userSpaceOnUse"
       id="clipPath196">
      <path
         d="M 0,841.89 H 595.276 V 0 H 0 Z"
         transform="translate(-357.82831,-446.96901)"
         id="path196" />
    </clipPath>
    <clipPath
       clipPathUnits="userSpaceOnUse"
       id="clipPath198">
      <path
         d="M 0,841.89 H 595.276 V 0 H 0 Z"
         transform="translate(-361.21101,-446.58671)"
         id="path198" />
    </clipPath>
    <clipPath
       clipPathUnits="userSpaceOnUse"
       id="clipPath200">
      <path
         d="M 0,841.89 H 595.276 V 0 H 0 Z"
         transform="translate(-353.18691,-446.53341)"
         id="path200" />
    </clipPath>
    <clipPath
       clipPathUnits="userSpaceOnUse"
       id="clipPath202">
      <path
         d="M 0,841.89 H 595.276 V 0 H 0 Z"
         transform="translate(-347.39941,-446.65781)"
         id="path202" />
    </clipPath>
    <clipPath
       clipPathUnits="userSpaceOnUse"
       id="clipPath204">
      <path
         d="M 0,841.89 H 595.276 V 0 H 0 Z"
         transform="translate(-200.17491,-456.70541)"
         id="path204" />
    </clipPath>
    <clipPath
       clipPathUnits="userSpaceOnUse"
       id="clipPath206">
      <path
         d="M 0,841.89 H 595.276 V 0 H 0 Z"
         transform="translate(-303.68971,-469.05721)"
         id="path206" />
    </clipPath>
    <clipPath
       clipPathUnits="userSpaceOnUse"
       id="clipPath208">
      <path
         d="M 0,841.89 H 595.276 V 0 H 0 Z"
         transform="translate(-245.15221,-473.01171)"
         id="path208" />
    </clipPath>
    <clipPath
       clipPathUnits="userSpaceOnUse"
       id="clipPath210">
      <path
         d="M 0,841.89 H 595.276 V 0 H 0 Z"
         transform="translate(-313.39051,-555.17662)"
         id="path210" />
    </clipPath>
    <clipPath
       clipPathUnits="userSpaceOnUse"
       id="clipPath212">
      <path
         d="M 0,841.89 H 595.276 V 0 H 0 Z"
         transform="translate(-333.36791,-633.27782)"
         id="path212" />
    </clipPath>
    <clipPath
       clipPathUnits="userSpaceOnUse"
       id="clipPath214">
      <path
         d="M 0,841.89 H 595.276 V 0 H 0 Z"
         transform="translate(-340.73141,-655.30022)"
         id="path214" />
    </clipPath>
    <clipPath
       clipPathUnits="userSpaceOnUse"
       id="clipPath216">
      <path
         d="M 0,841.89 H 595.276 V 0 H 0 Z"
         transform="translate(-308.49991,-582.21202)"
         id="path216" />
    </clipPath>
    <clipPath
       clipPathUnits="userSpaceOnUse"
       id="clipPath218">
      <path
         d="M 0,841.89 H 595.276 V 0 H 0 Z"
         transform="translate(-156.87261,-458.84051)"
         id="path218" />
    </clipPath>
    <clipPath
       clipPathUnits="userSpaceOnUse"
       id="clipPath220">
      <path
         d="M 0,841.89 H 595.276 V 0 H 0 Z"
         transform="translate(-357.92571,-622.41622)"
         id="path220" />
    </clipPath>
    <clipPath
       clipPathUnits="userSpaceOnUse"
       id="clipPath222">
      <path
         d="M 0,841.89 H 595.276 V 0 H 0 Z"
         transform="translate(-320.93131,-601.14572)"
         id="path222" />
    </clipPath>
    <clipPath
       clipPathUnits="userSpaceOnUse"
       id="clipPath224">
      <path
         d="M 0,841.89 H 595.276 V 0 H 0 Z"
         transform="translate(-327.03531,-604.18682)"
         id="path224" />
    </clipPath>
    <clipPath
       clipPathUnits="userSpaceOnUse"
       id="clipPath226">
      <path
         d="M 0,841.89 H 595.276 V 0 H 0 Z"
         transform="translate(-332.31731,-606.43312)"
         id="path226" />
    </clipPath>
    <clipPath
       clipPathUnits="userSpaceOnUse"
       id="clipPath228">
      <path
         d="M 0,841.89 H 595.276 V 0 H 0 Z"
         transform="translate(-343.69801,-648.01672)"
         id="path228" />
    </clipPath>
    <clipPath
       clipPathUnits="userSpaceOnUse"
       id="clipPath230">
      <path
         d="M 0,841.89 H 595.276 V 0 H 0 Z"
         transform="translate(-342.16211,-642.02812)"
         id="path230" />
    </clipPath>
    <clipPath
       clipPathUnits="userSpaceOnUse"
       id="clipPath232">
      <path
         d="M 0,841.89 H 595.276 V 0 H 0 Z"
         transform="translate(-331.44581,-613.30541)"
         id="path232" />
    </clipPath>
    <clipPath
       clipPathUnits="userSpaceOnUse"
       id="clipPath234">
      <path
         d="M 0,841.89 H 595.276 V 0 H 0 Z"
         transform="translate(-322.05081,-576.48592)"
         id="path234" />
    </clipPath>
    <clipPath
       clipPathUnits="userSpaceOnUse"
       id="clipPath236">
      <path
         d="M 0,841.89 H 595.276 V 0 H 0 Z"
         transform="translate(-164.6971,-402.76841)"
         id="path236" />
    </clipPath>
    <clipPath
       clipPathUnits="userSpaceOnUse"
       id="clipPath237">
      <path
         d="m 192.109,621.388 h 51.213 v -35.183 h -51.213 z"
         transform="translate(-231.32431,-621.38722)"
         id="path237" />
    </clipPath>
    <clipPath
       clipPathUnits="userSpaceOnUse"
       id="clipPath239">
      <path
         d="M 0,841.89 H 595.276 V 0 H 0 Z"
         transform="matrix(1.3333333,0,0,-1.3333333,0,1122.52)"
         id="path239" />
    </clipPath>
    <clipPath
       clipPathUnits="userSpaceOnUse"
       id="clipPath241">
      <path
         d="M 0,841.89 H 595.276 V 0 H 0 Z"
         transform="translate(-336.98221,-648.53692)"
         id="path241" />
    </clipPath>
    <clipPath
       clipPathUnits="userSpaceOnUse"
       id="clipPath243">
      <path
         d="M 0,841.89 H 595.276 V 0 H 0 Z"
         transform="translate(-316.80631,-573.04211)"
         id="path243" />
    </clipPath>
    <clipPath
       clipPathUnits="userSpaceOnUse"
       id="clipPath245">
      <path
         d="M 0,841.89 H 595.276 V 0 H 0 Z"
         transform="translate(-335.37731,-630.66562)"
         id="path245" />
    </clipPath>
    <clipPath
       clipPathUnits="userSpaceOnUse"
       id="clipPath247">
      <path
         d="M 0,841.89 H 595.276 V 0 H 0 Z"
         transform="translate(-331.88361,-601.60841)"
         id="path247" />
    </clipPath>
    <clipPath
       clipPathUnits="userSpaceOnUse"
       id="clipPath248">
      <path
         d="m 179.882,574.97 h 50.636 v -34.609 h -50.636 z"
         transform="translate(-209.4214,-571.78301)"
         id="path248" />
    </clipPath>
    <clipPath
       clipPathUnits="userSpaceOnUse"
       id="clipPath250">
      <path
         d="M 0,841.89 H 595.276 V 0 H 0 Z"
         transform="matrix(1.3333333,0,0,-1.3333333,0,1122.52)"
         id="path250" />
    </clipPath>
    <clipPath
       clipPathUnits="userSpaceOnUse"
       id="clipPath251">
      <path
         d="m 414.15,483.476 h 22.829 V 418.899 H 414.15 Z"
         transform="translate(-416.77971,-463.32571)"
         id="path251" />
    </clipPath>
    <clipPath
       clipPathUnits="userSpaceOnUse"
       id="clipPath253">
      <path
         d="M 0,841.89 H 595.276 V 0 H 0 Z"
         transform="matrix(1.3333333,0,0,-1.3333333,0,1122.52)"
         id="path253" />
    </clipPath>
    <clipPath
       clipPathUnits="userSpaceOnUse"
       id="clipPath254">
      <path
         d="M 410.703,571.753 H 466.56 V 486.898 H 410.703 Z"
         transform="translate(-422.27641,-552.93851)"
         id="path254" />
    </clipPath>
    <clipPath
       clipPathUnits="userSpaceOnUse"
       id="clipPath256">
      <path
         d="M 0,841.89 H 595.276 V 0 H 0 Z"
         transform="matrix(1.3333333,0,0,-1.3333333,0,1122.52)"
         id="path256" />
    </clipPath>
  </defs>
  <sodipodi:namedview
     id="namedview1"
     pagecolor="#ffffff"
     bordercolor="#000000"
     borderopacity="0.25"
     inkscape:showpageshadow="2"
     inkscape:pageopacity="0.0"
     inkscape:pagecheckerboard="0"
     inkscape:deskcolor="#d1d1d1"
     inkscape:zoom="0.60197366"
     inkscape:cx="319.78143"
     inkscape:cy="504.17488"
     inkscape:window-width="1440"
     inkscape:window-height="876"
     inkscape:window-x="0"
     inkscape:window-y="24"
     inkscape:window-maximized="0"
     inkscape:current-layer="layer-MC1">
    <inkscape:page
       x="0"
       y="3.6830358e-14"
       inkscape:label="1"
       id="page1"
       width="781.42267"
       height="1041.0979"
       margin="126.43266 0 65.333336"
       bleed="0" />
  </sodipodi:namedview>
  <g
     id="layer-MC0"
     inkscape:groupmode="layer"
     inkscape:label="reference copy"
     transform="translate(0,-20.322024)" />
  <g
     id="layer-MC1"
     inkscape:groupmode="layer"
     inkscape:label="Sky Woman"
     transform="translate(0,-20.322024)">
    <path
       id="path2"
       d="M -1.6611964,991.10308 H 779.76144 V 141.77109 H -1.6611964 Z"
       style="fill:#fddd10;fill-opacity:1;fill-rule:nonzero;stroke:none;stroke-width:1.33333" />
    <path
       id="path3"
       d="m 0,0 c 10.435,-4.052 132.855,-9.815 152.681,-39.082 20.495,-30.255 19.323,-122.717 19.323,-122.717 l -461.779,8.232 c 0,0 -12.499,89.156 21.934,122.025 31.421,29.994 79.719,37.656 115.827,31.519 35.544,-6.041 50.601,-16.672 80.108,-25.173 C -40.376,-34.28 0,0 0,0"
       style="fill:#fab973;fill-opacity:1;fill-rule:nonzero;stroke:none"
       transform="matrix(1.3333333,0,0,-1.3333333,467.5556,706.68453)"
       clip-path="url(#clipPath4)" />
    <path
       id="path5"
       d="m 0,0 c 6.345,-11.049 28.922,-41.79 37.026,-48.706 8.104,-6.916 22.582,-24.283 38.787,-23.704 16.206,0.579 33.378,-0.607 41.29,-0.014 7.912,0.593 39.201,16.802 47.001,23.169 7.8,6.368 30.281,39.521 35.539,44.574 5.257,5.052 -48.022,23.523 -58.72,21.313 C 130.225,14.422 32.297,5.542 30.457,6.379 28.617,7.215 0,0 0,0"
       style="fill:#f0a25b;fill-opacity:1;fill-rule:nonzero;stroke:none"
       transform="matrix(1.3333333,0,0,-1.3333333,274.6648,742.41947)"
       clip-path="url(#clipPath6)" />
    <path
       id="path7"
       d="m 0,0 -18.2,5.898 c 0,0 8.764,-46.475 24.962,-55.922 16.198,-9.447 24.76,-23.416 28.555,-24.289 3.794,-0.873 48.32,-7.484 62.288,4.552 13.969,12.036 28.234,41.72 32.888,47.831 4.653,6.111 29.4,21.93 29.4,21.93 v 3.996 l -45.682,6.173 z"
       style="fill:#eb914c;fill-opacity:1;fill-rule:nonzero;stroke:none"
       transform="matrix(1.3333333,0,0,-1.3333333,315.27413,720.24333)"
       clip-path="url(#clipPath8)" />
    <path
       id="path9"
       d="m 0,0 1.394,-9.906 c 0,0 8.911,-0.33 12.327,2.055 3.416,2.386 27.434,7.193 31.309,10.938 3.875,3.745 19.441,33.15 20.027,36.893 0.586,3.743 4.343,20.053 -7.954,15.826 C 44.806,51.58 0,0 0,0"
       style="fill:#e38a44;fill-opacity:1;fill-rule:nonzero;stroke:none"
       transform="matrix(1.3333333,0,0,-1.3333333,402.522,802.7904)"
       clip-path="url(#clipPath10)" />
    <path
       id="path11"
       d="m 0,0 -17.434,-7.529 c 0,0 -10.725,17.03 -14.293,21.394 -3.569,4.364 0.112,15.054 3.363,15.892 3.251,0.837 12.343,0.11 18.525,-4.618 C -3.656,20.411 0,0 0,0"
       style="fill:#e38a44;fill-opacity:1;fill-rule:nonzero;stroke:none"
       transform="matrix(1.3333333,0,0,-1.3333333,333.31027,757.43787)"
       clip-path="url(#clipPath12)" />
    <path
       id="path13"
       d="m 0,0 c -7.871,0.184 -64.483,-1.837 -87.291,-33.408 -22.808,-31.571 -28.188,-48.31 -29.982,-81.19 -1.793,-32.881 0,-41.25 0,-41.25 l 469.827,-7.817 c 0,0 2.389,77.919 -11.062,107.107 0,0 -96.297,-58.967 -167.175,-53.661 -97.01,7.263 -125.476,46.603 -140.87,66.696 C 18.052,-23.429 0,0 0,0"
       style="fill:#f1fafa;fill-opacity:1;fill-rule:nonzero;stroke:none"
       transform="matrix(1.3333333,0,0,-1.3333333,226.82253,704.196)"
       clip-path="url(#clipPath14)" />
    <path
       id="path15"
       d="m 0,0 c 18.945,-12.261 25.951,-15.804 25.951,-15.804 0,0 0.078,-40.956 0.249,-51.358 0.172,-10.401 1.884,-17.708 1.884,-17.708 l -27.245,0.486 z"
       style="fill:#adcced;fill-opacity:1;fill-rule:nonzero;stroke:none"
       transform="matrix(1.3333333,0,0,-1.3333333,310.06533,803.02867)"
       clip-path="url(#clipPath16)" />
    <path
       id="path17"
       d="M 0,0 C 17.649,3.443 35.235,8.176 35.235,8.176 L 77.767,-53.458 H 30.728 Z"
       style="fill:#adcced;fill-opacity:1;fill-rule:nonzero;stroke:none"
       transform="matrix(1.3333333,0,0,-1.3333333,504.7888,848.91307)"
       clip-path="url(#clipPath18)" />
    <path
       id="path19"
       d="m 0,0 12.918,5.101 c 0,0 49.376,-75.702 52.172,-75.773 2.797,-0.072 6.665,-0.374 6.665,-0.374 L 48.103,-69.377 0,-8.643 Z"
       style="fill:#adcced;fill-opacity:1;fill-rule:nonzero;stroke:none"
       transform="matrix(1.3333333,0,0,-1.3333333,582.11387,827.688)"
       clip-path="url(#clipPath20)" />
    <path
       id="path21"
       d="m 0,0 c 2.231,-18.714 -0.284,-41.785 -0.284,-41.785 0,0 14.985,-61.05 65.436,-60.777 39.924,0.216 68.211,69.069 68.211,69.069 0,0 -8.146,22.265 -10.363,50.024 -4.685,58.663 -5.552,30.424 -5.552,30.424 z"
       style="fill:#b75c3c;fill-opacity:1;fill-rule:nonzero;stroke:none"
       transform="matrix(1.3333333,0,0,-1.3333333,315.65213,667.42067)"
       clip-path="url(#clipPath22)" />
    <path
       id="path23"
       d="m 0,0 c -2.019,-17.739 -0.261,-21.96 -0.261,-21.96 0,0 10.418,-27.221 28.128,-30.143 17.823,-2.939 25.285,-2.938 25.285,-2.938 l -6.558,46.275 c 0,0 -9.683,-1.499 -19.958,-1.499 C 16.361,-10.265 0,0 0,0"
       style="fill:#e38a44;fill-opacity:1;fill-rule:nonzero;stroke:none"
       transform="matrix(1.3333333,0,0,-1.3333333,331.65213,730.7828)"
       clip-path="url(#clipPath24)" />
    <g
       opacity="0.410004"
       id="g26"
       clip-path="url(#clipPath27)">
      <path
         d="m 0,0 c 1.639,-0.3 15.888,-3.529 15.888,-3.529 l 1.868,-0.331 c 0,-4.678 8.323,-23.671 16.745,-39.346 l 5.657,-8.396 -0.357,-30.003 -18.842,11.091 z"
         style="fill:#824d41;fill-opacity:1;fill-rule:nonzero;stroke:none"
         transform="matrix(1.3333333,0,0,-1.3333333,291.59973,715.29387)"
         clip-path="url(#clipPath25)"
         id="path26" />
    </g>
    <g
       opacity="0.570007"
       id="g29"
       clip-path="url(#clipPath30)">
      <path
         d="m 0,0 c 2.837,-0.472 15.001,-2.671 15.001,-2.671 0,0 -3.577,-28.895 -0.686,-41.851 2.891,-12.956 11.196,-30.96 11.196,-30.96 l -7.192,-2.903 c 0,0 -22.738,51.375 -20.043,63.607 C 0.971,-2.546 0,0 0,0"
         style="fill:#9f4d4c;fill-opacity:1;fill-rule:nonzero;stroke:none"
         transform="matrix(1.3333333,0,0,-1.3333333,565.32293,720.24333)"
         clip-path="url(#clipPath28)"
         id="path29" />
    </g>
    <path
       id="path31"
       d="m 0,0 c -16.12,0 -58.609,45.836 -75.862,59.943 -31.782,25.988 -38.624,97.342 -32.594,120.102 1.388,5.241 27.978,97.864 72.196,135.661 37.362,31.938 60.065,40.696 98.413,43.043 38.347,2.348 49.304,-6.261 49.304,-6.261 0,0 26.223,1.401 46.251,-17.217 25.621,-23.818 49.16,-95.77 50.01,-143.217 C 209.06,117.078 183.394,87.876 181.386,78.387 178.106,62.887 46.864,45.247 33.426,41.321 -0.948,31.281 0,0 0,0"
       style="fill:#351f17;fill-opacity:1;fill-rule:nonzero;stroke:none"
       transform="matrix(1.3333333,0,0,-1.3333333,315.27413,720.24333)"
       clip-path="url(#clipPath32)" />
    <path
       id="path33"
       d="m 0,0 c -18.245,11.403 -35.556,13.149 -53.367,12.878 -33.321,-0.507 -78.146,-23.138 -103.498,-53.094 -40.291,-47.606 -63.42,-139.638 -50.757,-215.138 12.663,-75.499 38.838,-86.29 34.277,-136.463 -4.561,-50.173 -49.864,-101.936 -49.864,-101.936 l 129.134,-2.302 c 0,0 -0.094,91.918 -7.595,122.863 -7.5,30.946 -8.62,42.67 -8.62,42.67 1.398,0.975 -44.938,58.129 -53.175,84.963 -9.683,31.543 -11.371,61.192 1.278,92.834 13.958,34.917 42.831,63.545 64.617,74.786 21.786,11.241 69.805,7.364 78.547,9.182 C -13.274,-67.561 -3.703,4.06 0,0"
       style="fill:#855333;fill-opacity:1;fill-rule:nonzero;stroke:none"
       transform="matrix(1.3333333,0,0,-1.3333333,452.8832,254.56267)"
       clip-path="url(#clipPath34)" />
    <path
       id="path35"
       d="m 0,0 c 6.361,-19.819 9.436,-123.17 4.798,-150.73 -4.639,-27.56 -37.71,-64.059 -37.71,-64.059 H 0 c 0,0 31.618,33.124 33.803,75.463 2.185,42.338 4.605,124.602 4.605,124.602 z"
       style="fill:#bf935b;fill-opacity:1;fill-rule:nonzero;stroke:none"
       transform="matrix(1.3333333,0,0,-1.3333333,256.14547,627.53107)"
       clip-path="url(#clipPath36)" />
    <path
       id="path37"
       d="m 0,0 c 1.943,-41.727 -20.19,-77.397 -26.703,-104.897 -6.514,-27.501 -8.155,-68.994 -8.155,-68.994 l 102.454,-2.694 c -19.406,27.46 -31.483,47.319 -31.483,69.029 0,21.711 -8.613,18.541 -4.994,59.792 2.2,25.08 9.486,116.256 6.151,107.54 C 32.94,48.456 14.202,14.274 0,0"
       style="fill:#75492e;fill-opacity:1;fill-rule:nonzero;stroke:none"
       transform="matrix(1.3333333,0,0,-1.3333333,472.8968,684.74347)"
       clip-path="url(#clipPath38)" />
    <path
       id="path39"
       d="m 0,0 c 2.037,-19.933 -19.38,-68.519 -18.317,-90.734 1.062,-22.215 23.82,-50.561 24.119,-74.579 0.299,-24.018 -6.762,-23.832 -6.762,-23.832 h 26.251 c 0,0 -15.296,106.157 -4.738,127.296 10.557,21.139 6.151,107.54 6.151,107.54 z"
       style="fill:#a47343;fill-opacity:1;fill-rule:nonzero;stroke:none"
       transform="matrix(1.3333333,0,0,-1.3333333,486.98533,665.96347)"
       clip-path="url(#clipPath40)" />
    <path
       id="path41"
       d="m 0,0 c -6.484,-34.276 -2.284,-86.064 0,-97.433 2.284,-11.37 13.259,-60.845 37.833,-67.734 24.573,-6.889 31.809,-8.768 31.809,-8.768 0,0 -26.879,21.586 -34.28,44.298 -7.401,22.713 -3.609,77.345 -3.609,77.345 z"
       style="fill:#6f4324;fill-opacity:1;fill-rule:nonzero;stroke:none"
       transform="matrix(1.3333333,0,0,-1.3333333,231.43467,555.02867)"
       clip-path="url(#clipPath42)" />
    <path
       id="path43"
       d="m 0,0 c 19.713,11.375 53.286,1.556 76.157,-51.265 22.871,-52.821 17.99,-100.011 19.574,-148.655 1.585,-48.643 -8.478,-80.616 -7.083,-117.111 1.395,-36.495 -5.239,-70.71 5.427,-93.752 10.667,-23.043 22.78,-39.309 34.057,-60.455 12.522,-23.478 29.832,-34.453 29.832,-34.453 l -58.238,1.67 c 0,0 -60.717,49.329 -70.2,100.397 -9.484,51.067 1.193,70.515 6.905,104.558 5.712,34.044 17.813,89.537 15.465,124.755 -2.348,35.217 -3.913,68.869 -27.391,96.261 -11.251,13.125 -36.334,27.825 -36.334,27.825 z"
       style="fill:#855333;fill-opacity:1;fill-rule:nonzero;stroke:none"
       transform="matrix(1.3333333,0,0,-1.3333333,458.28307,253.4092)"
       clip-path="url(#clipPath44)" />
    <path
       id="path45"
       d="m 0,0 c -0.111,-17.906 16.806,-30.604 17.688,-53.457 0.883,-22.854 -7.74,-60.373 -19.469,-67.369 -11.73,-6.995 35.852,15.67 43.483,26.02 7.631,10.35 11.138,55.197 5.175,77.749 C 43.239,-3.296 39.298,23.667 32.409,53.182 25.721,81.835 0,0 0,0"
       style="fill:#6f4324;fill-opacity:1;fill-rule:nonzero;stroke:none"
       transform="matrix(1.3333333,0,0,-1.3333333,485.2528,635.81867)"
       clip-path="url(#clipPath46)" />
    <path
       id="path47"
       d="m 0,0 c -28.612,5.926 -87.652,-1.565 -117.391,-31.304 -29.739,-29.74 -44.609,-87.653 -38.348,-125.218 6.261,-37.565 39.13,-80.608 50.869,-94.695 11.74,-14.087 28.174,-32.087 36.783,-34.435 8.609,-2.348 28.957,-10.957 53.217,0 24.261,10.956 49.305,31.304 65.74,54.782 16.434,23.479 26.62,54.91 28.52,65.819 1.9,10.909 12.958,35.921 -4.26,93.834 C 57.913,-13.304 17.843,-3.696 0,0"
       style="fill:#fbc78b;fill-opacity:1;fill-rule:nonzero;stroke:none"
       transform="matrix(1.3333333,0,0,-1.3333333,434.9092,345.7992)"
       clip-path="url(#clipPath48)" />
    <path
       id="path49"
       d="M 0,0 C 3.274,8.222 11.148,21.872 9.907,24.664 8.666,27.456 9.05,39.856 9.648,43.582 c 0.598,3.727 19.754,18.214 32.783,21.006 13.029,2.791 15.668,0.465 19.005,1.706 3.337,1.241 11.039,-6.103 19.534,-10.136 8.495,-4.033 6.212,-10.265 9.21,-15.849 2.999,-5.583 3.33,-4.368 4.881,-11.794 1.551,-7.426 12.183,-14.454 7.84,-18.797 -4.343,-4.343 -7.902,-9.866 -8.349,-13.01 -0.448,-3.144 22.36,-4.338 22.36,-4.338 0,0 23.736,75.955 23.117,77.811 C 139.411,72.037 51.68,89.717 51.68,89.717 L -12.172,57.005 -24.1,6.262 -4.045,0 Z"
       style="fill:#fabe82;fill-opacity:1;fill-rule:nonzero;stroke:none"
       transform="matrix(1.3333333,0,0,-1.3333333,303.26693,478.08667)"
       clip-path="url(#clipPath50)" />
    <path
       id="path51"
       d="m 0,0 c 1.285,10.301 15.429,19.861 22.548,23.541 16.406,8.482 33.598,4.889 51.893,1.094 19.786,-4.103 16.872,-26.472 27.618,-37.226 5.612,-5.616 7.571,-12.794 5.868,-17.773 C 102.819,-45.303 97.441,-46.17 97.441,-46.17 l 19.471,-3.304 38.083,-4 4.156,-20.804 c 0,0 15.939,1.349 18.521,7.802 2.581,6.453 -3.325,76.329 -43.77,105.416 C 115.604,52.1 84.429,61.741 61.197,55.288 37.966,48.835 6.15,45.006 -7.636,29.476 -25.638,9.195 -52.168,-12.467 -51.229,-57.104 c 0.223,-10.558 13.298,-6.862 13.298,-6.862 l 19.97,25.469 7.109,-3.346 h 6.807 c 0,0 3.078,11.627 5.346,22.392 C 2.823,-12.233 -0.516,-4.134 0,0"
       style="fill:#fab87c;fill-opacity:1;fill-rule:nonzero;stroke:none"
       transform="matrix(1.3333333,0,0,-1.3333333,303.26693,422.29587)"
       clip-path="url(#clipPath52)" />
    <path
       id="path53"
       d="m 0,0 2.232,-9.096 c 0,0 -2.271,-13.043 -2.286,-27.265 -0.015,-14.221 -1.132,-42.179 5.769,-45.547 6.902,-3.367 62.103,16.978 79.421,57.079 17.319,40.101 33.416,67.741 28.505,91.474 -4.911,23.734 -92.925,20.99 -100.12,6.56 C 6.327,58.775 2.232,-9.096 2.232,-9.096"
       style="fill:#f8c18d;fill-opacity:1;fill-rule:nonzero;stroke:none"
       transform="matrix(1.3333333,0,0,-1.3333333,375.74933,618.1872)"
       clip-path="url(#clipPath54)" />
    <path
       id="path55"
       d="M 0,0 C -3.509,-1.311 -10.237,-7.742 -15.941,-8.853"
       style="fill:#f8c18d;fill-opacity:1;fill-rule:nonzero;stroke:none"
       transform="matrix(1.3333333,0,0,-1.3333333,482.8776,526.802)"
       clip-path="url(#clipPath56)" />
    <path
       id="path57"
       d="m 0,0 c -2.146,7.412 -15.538,53.317 -15.538,53.317 0,0 17.411,13.079 24.002,13.079 6.591,0 46.093,3.367 56.412,0 10.319,-3.368 23.672,-6.024 23.672,-6.024 0,0 3.136,-13.711 -0.891,-21.401 C 84.37,32.695 5.715,41.985 1.139,38.215 -3.437,34.445 0,0 0,0"
       style="fill:#e58861;fill-opacity:1;fill-rule:nonzero;stroke:none"
       transform="matrix(1.3333333,0,0,-1.3333333,401.43307,578.78373)"
       clip-path="url(#clipPath58)" />
    <path
       id="path59"
       d="m 0,0 c 3.167,10.251 4.292,38.147 -0.327,43.094 -4.618,4.948 -23.389,15.261 -23.389,15.261 l -38.533,2.152 -24.858,-5.413 c 0,0 2.04,-19.901 5.099,-23.488 0.317,-0.372 1.494,-0.808 3.333,-1.287 12.872,-3.355 58.154,-8.835 67.56,-9.275 C -0.365,20.54 0,0 0,0"
       style="fill:#f3a55e;fill-opacity:1;fill-rule:nonzero;stroke:none"
       transform="matrix(1.3333333,0,0,-1.3333333,358.49093,555.89333)"
       clip-path="url(#clipPath60)" />
    <path
       id="path61"
       d="m 0,0 c 7.642,-3.096 8.619,-3.91 11.852,-6.622 2.717,-2.279 11.045,-11.509 14.669,-19.91 3.581,-8.3 12.013,-27.253 15.136,-35.968 2.519,-7.027 32.288,-55.25 43.319,-61.26 19.902,-10.845 45.61,-13.825 39.544,-15.422 -8.893,-2.342 -32.986,1.617 -38.382,5.26 -29.57,19.963 -50.826,52.934 -59.215,67.356 C 19.173,-53.241 5.86,-30.589 1.699,-11.37 -0.879,0.535 0,0 0,0"
       style="fill:#fab97b;fill-opacity:1;fill-rule:nonzero;stroke:none"
       transform="matrix(1.3333333,0,0,-1.3333333,226.54533,547.06453)"
       clip-path="url(#clipPath62)" />
    <path
       id="path63"
       d="m 0,0 c 2.986,-7.517 5.897,-15.158 7.716,-16.977 1.819,-1.819 11.152,-13.376 9.779,-20.733 -0.845,-4.529 -1.626,-7.021 -4.975,-8.789 -3.348,-1.767 -8.683,-6.438 -14.202,-2.829 -5.519,3.608 -2.244,46.684 -2.244,46.684 z"
       style="fill:#e58863;fill-opacity:1;fill-rule:nonzero;stroke:none"
       transform="matrix(1.3333333,0,0,-1.3333333,399.09307,561.26013)"
       clip-path="url(#clipPath64)" />
    <path
       id="path65"
       d="m 0,0 c -6.11,-3.096 8.621,-18.333 12.365,-25.432 5.047,-9.571 3.69,-16.64 12.242,-25.63 8.752,-9.2 11.899,-26.229 11.899,-26.229 l 26.51,-3.821 18.713,43.629 -4.9,11.726 -4.134,8.9 z"
       style="fill:#e58864;fill-opacity:1;fill-rule:nonzero;stroke:none"
       transform="matrix(1.3333333,0,0,-1.3333333,420.80627,380.11173)"
       clip-path="url(#clipPath66)" />
    <path
       id="path67"
       d="m 0,0 c 10.242,0.154 13.822,-1.837 21.337,-2.444 10.459,-0.845 12.245,-3.225 15.932,-1.479 6.275,2.971 8.851,8.65 13.848,14.944 4.997,6.293 7.704,-16.69 7.704,-16.69 L 43.173,-34.198 c 0,0 -19.344,-3.473 -17.176,-2.023 2.168,1.451 10.783,8.953 9.709,14.426 -1.25,6.368 -9.375,3.083 -9.375,3.083 L 16.813,-24.389 4.855,-1.221"
       style="fill:#f49f6b;fill-opacity:1;fill-rule:nonzero;stroke:none"
       transform="matrix(1.3333333,0,0,-1.3333333,383.19427,663.31173)"
       clip-path="url(#clipPath68)" />
    <path
       id="path69"
       d="m 0,0 c -2.485,-2.771 -9.646,-49.017 -17.028,-55.694 -8.072,-7.299 -20.165,-12.267 -23.738,-12.934 -6.841,-1.277 -15.245,3.931 -22.761,1.699 -7.516,-2.232 -11.245,-2.319 -14.031,-1.904 -2.785,0.416 -4.983,-0.042 -6.35,-2.932 -1.98,-4.186 17.64,-9.613 23.038,-9.62 13.776,-0.02 27.544,0.812 47.29,15.89 1.626,1.241 15.126,13.973 16.804,15.401"
       style="fill:#ec9063;fill-opacity:1;fill-rule:nonzero;stroke:none"
       transform="matrix(1.3333333,0,0,-1.3333333,458.264,624.7512)"
       clip-path="url(#clipPath70)" />
    <path
       id="path71"
       d="m 0,0 c -13.296,-10.447 -19.373,-9.908 -20.596,-16.212 -1.224,-6.304 33.397,-66.171 33.397,-66.171 -5.144,-0.327 2.935,-11.543 2.935,-11.543 0,0 30.161,-20.454 29.297,-25.009 -1.583,-8.35 -1.955,-24.403 -5.279,-32 -3.324,-7.598 -20.394,-17.421 -34.868,-33.738 -11.967,-13.491 -9.942,-40.292 -10.423,-48.136 -0.481,-7.845 -15.059,-29.33 -15.059,-29.33 4.114,-0.02 55.129,35.103 65.629,65.491 10.364,29.994 24.142,56.982 21.801,92.06 -2.342,35.077 -19.99,76.143 -19.99,76.143 z"
       style="fill:#cb7a58;fill-opacity:1;fill-rule:nonzero;stroke:none"
       transform="matrix(1.3333333,0,0,-1.3333333,458.264,368.24307)"
       clip-path="url(#clipPath72)" />
    <path
       id="path73"
       d="m 0,0 c -2.901,-8.978 -8.882,-21.88 -14.019,-28.505 -4.083,-5.265 -7.492,-10.53 -6.803,-15.846 0.689,-5.317 5.459,-8.788 8.075,-10 2.616,-1.211 12.974,0.289 12.974,0.289 L 11.499,-8.011 4.141,3.894"
       style="fill:#fab96b;fill-opacity:1;fill-rule:nonzero;stroke:none"
       transform="matrix(1.3333333,0,0,-1.3333333,356.84227,551.54267)"
       clip-path="url(#clipPath74)" />
    <path
       id="path75"
       d="m 0,0 c -0.152,-6.912 3.97,-4.43 7.631,-5.579 4.248,-1.333 6.038,-2.596 6.507,-2.844 2.243,-1.185 3.947,-3.061 4.579,-4.578 0.632,-1.517 -0.136,-4.812 0.382,-7.345 0.419,-2.049 2.365,-3.994 3.598,-3.994 1.319,0 3.964,2.153 4.387,4.716 0.242,1.466 0.599,4.726 1.014,6.328 0.416,1.603 1.216,4.689 1.216,4.689 0,0 2.021,1.695 4.643,1.695 2.242,0 5.742,-1.224 8.951,-1.224 2.251,0 4.872,1.224 4.872,1.224 l 4.405,1.333 -45.947,4.641"
       style="fill:#e5885d;fill-opacity:1;fill-rule:nonzero;stroke:none"
       transform="matrix(1.3333333,0,0,-1.3333333,339.64013,619.59213)"
       clip-path="url(#clipPath76)" />
    <path
       id="path77"
       d="M 0,0 C -0.93,-2.309 -2.716,-5.525 -2.821,-4.941 L 9.056,-6.645 c 0,0 -1.824,2.966 -2.628,5.492 C 5.596,1.459 6.051,2.739 3.64,2.925 1.144,3.118 0.867,2.159 0,0"
       style="fill:#fcd29c;fill-opacity:1;fill-rule:nonzero;stroke:none"
       transform="matrix(1.3333333,0,0,-1.3333333,363.6032,658.5608)"
       clip-path="url(#clipPath78)" />
    <path
       id="path79"
       d="m 0,0 c -4.119,0.303 -10.636,-0.909 -9.196,-4.243 1.44,-3.334 4.021,-6.82 6.292,-5.607 2.27,1.212 12.163,3.031 13.96,2.576 1.798,-0.455 13.879,-3.093 14.809,-1.471 0.931,1.622 -3.208,7.381 -3.208,7.381 C 17.703,0.455 10.366,-0.062 6.988,0.045 3.61,0.152 0,0 0,0"
       style="fill:#fcd29c;fill-opacity:1;fill-rule:nonzero;stroke:none"
       transform="matrix(1.3333333,0,0,-1.3333333,362.36307,700.41907)"
       clip-path="url(#clipPath80)" />
    <path
       id="path81"
       d="m 0,0 c 1.003,-0.393 1.255,-0.338 1.926,-0.52 0.981,-0.265 2.034,-1.436 2.903,-1.65 0.944,0.115 2.906,0.653 3.603,0.857 0.91,0.266 1.969,0.379 2.605,0.23 2.068,-0.484 3.093,-0.817 2.71,-1.049 C 13.035,-2.564 9.236,-2.575 7.883,-3.087 6.229,-3.713 3.914,-3.061 2.028,-2.517 1.22,-2.284 -2.809,-0.204 -2.585,0.361 -2.432,0.745 -2.594,1.047 0,0"
       style="fill:#f7ef4c;fill-opacity:1;fill-rule:nonzero;stroke:none"
       transform="matrix(1.3333333,0,0,-1.3333333,361.32027,661.50613)"
       clip-path="url(#clipPath82)" />
    <path
       id="path83"
       d="m 0,0 c 4.318,1.961 6.044,1.5 9.882,2.847 3.838,1.347 11.066,4.642 14.813,4.072 3.747,-0.57 5.873,-2.824 5.044,-7.562 -0.83,-4.738 -4.967,-4.255 -9.954,-5.794 C 14.797,-7.975 14.252,-8.754 8.029,-9.036 1.806,-9.318 1.757,-8.968 -1.044,-7.674 -3.896,-6.358 -3.271,-1.486 0,0"
       style="fill:#fad6a4;fill-opacity:1;fill-rule:nonzero;stroke:none"
       transform="matrix(1.3333333,0,0,-1.3333333,468.9476,555.91867)"
       clip-path="url(#clipPath84)" />
    <path
       id="path85"
       d="m 0,0 c -4.114,2.358 -11.172,5.035 -14.867,6.737 -3.694,1.702 -11.617,7.056 -15.401,6.841 -3.784,-0.216 -6.113,-2.26 -5.732,-7.055 0.381,-4.795 7.083,-8.467 11.904,-10.467 4.822,-2 6.379,-3.283 12.548,-4.149 6.169,-0.866 6.979,-0.301 9.889,0.723 C 1.304,-6.327 3.117,-1.787 0,0"
       style="fill:#fad592;fill-opacity:1;fill-rule:nonzero;stroke:none"
       transform="matrix(1.3333333,0,0,-1.3333333,290.0616,551.4336)"
       clip-path="url(#clipPath86)" />
    <path
       id="path87"
       d="m 0,0 c 3.057,-3.074 2.225,-11.22 -2.352,-15.675 -4.576,-4.456 -8.512,-6.232 -11.125,-10.766 -2.41,-4.182 -8.812,-7.969 -10.671,-11.297 -1.858,-3.328 -7.4,-9.42 -10.094,-16.492 -1.345,-3.532 5.043,-9.122 5.043,-9.122 l -21.589,-9.523 c 0,0 1.765,-22.2 5.099,-23.487 0,0 -2.281,-3.642 -5.354,-7.984 -2.976,-4.204 -3.59,-9.087 -3.57,-14.073 0.021,-5.229 -1.919,-10.149 -1.739,-16.312 0.183,-6.247 2.431,-7.034 2.508,-10.405 0.078,-3.461 0.456,-9.494 0.456,-9.494 0,0 -3.422,2.877 -8.718,27.71 -5.297,24.833 27.619,108.736 38.495,118.681 C -12.735,1.705 0,0 0,0"
       style="fill:#e58864;fill-opacity:1;fill-rule:nonzero;stroke:none"
       transform="matrix(1.3333333,0,0,-1.3333333,310.06533,385.26867)"
       clip-path="url(#clipPath88)" />
    <path
       id="path89"
       d="m 0,0 c -10.534,-10.563 -34.903,-44.436 -39.549,-51.062 -4.646,-6.626 -15.146,-25.68 -15.146,-25.68 0,0 -3.834,-16.902 -5.563,-25.372 -1.729,-8.469 -1.832,-44.245 -1.832,-44.245 0,0 -10.144,11.335 -5.467,52.075 4.677,40.74 36.413,92.351 42.51,94.284 C -18.95,1.933 0,0 0,0"
       style="fill:#cb7a58;fill-opacity:1;fill-rule:nonzero;stroke:none"
       transform="matrix(1.3333333,0,0,-1.3333333,315.27413,380.11173)"
       clip-path="url(#clipPath90)" />
    <path
       id="path91"
       d="m 0,0 c 0,0 0.396,-4.475 5.853,-4.793 13.252,-0.772 5.299,3.083 5.299,3.083"
       style="fill:#9f4d4c;fill-opacity:1;fill-rule:nonzero;stroke:none"
       transform="matrix(1.3333333,0,0,-1.3333333,339.84627,617.57867)"
       clip-path="url(#clipPath92)" />
    <path
       id="path93"
       d="m 0,0 c 8.495,0 10.177,4.827 10.177,4.827 0,0 -8.495,5.822 -12.504,4.339 C -6.335,7.684 -7.331,0.17 -7.331,0.17 -7.331,0.17 -8.495,0 0,0"
       style="fill:#9f4d4c;fill-opacity:1;fill-rule:nonzero;stroke:none"
       transform="matrix(1.3333333,0,0,-1.3333333,385.52427,627.62867)"
       clip-path="url(#clipPath94)" />
    <path
       id="path95"
       d="m 0,0 c 5.665,-4.176 10.006,-4.176 12.418,-9 2.412,-4.824 12.784,-21.764 12.784,-21.764 L 15.554,3.784 0,10.313 V 0 10.313"
       style="fill:#eb9152;fill-opacity:1;fill-rule:nonzero;stroke:none"
       transform="matrix(1.3333333,0,0,-1.3333333,326.8696,491.83773)"
       clip-path="url(#clipPath96)" />
    <path
       id="path97"
       d="m 0,0 c 6.005,-3.193 40.459,-5.379 41.778,-8.301 1.318,-2.922 -43.099,-8.237 -46.032,-12.723 -2.142,-3.277 0,-16.724 0,-16.724 0,0 1.239,-27.118 4.254,-37.971 1.818,-6.544 6.914,-12.066 7.112,-20.441 0.139,-5.885 -3.752,-9.273 -5.631,-10.763 -5.735,-4.545 -11.122,0.983 -18.064,-0.44 -1.471,-0.302 -2.598,-0.409 -3.427,-0.349 -2.814,0.207 -2.214,2.347 -0.069,5.402 3.048,4.341 -0.879,78.456 -0.879,78.456 z"
       style="fill:#cb7a58;fill-opacity:1;fill-rule:nonzero;stroke:none"
       transform="matrix(1.3333333,0,0,-1.3333333,402.522,482.52627)"
       clip-path="url(#clipPath98)" />
    <path
       id="path99"
       d="m 0,0 c 3.766,-15.542 2.875,-29.321 1.232,-38.969 -1.643,-9.647 -15.911,-25.07 -14.426,-33.018 1.955,-10.465 5.685,-5.818 9.968,-6.923 1.427,-0.368 3.243,1.383 4.521,1.624 5.111,0.965 15.53,80.61 12.012,83.569 C 9.789,9.242 0,0 0,0"
       style="fill:#f4a64d;fill-opacity:1;fill-rule:nonzero;stroke:none"
       transform="matrix(1.3333333,0,0,-1.3333333,352.98933,516.81013)"
       clip-path="url(#clipPath100)" />
    <path
       id="path101"
       d="m 0,0 c -10.416,8.009 -21.646,21.011 -21.646,21.011 l -1.935,4.009 c 0,0 6.928,9.378 12.284,10.761 7.018,1.812 25.234,-0.972 38.176,-0.972 3.624,0 5.971,-4.231 9.727,-9.241 3.77,-5.028 -1.513,-7.887 -1.513,-7.887 L 30.839,13.38 18.738,-1.195 Z"
       style="fill:#fabd83;fill-opacity:1;fill-rule:nonzero;stroke:none"
       transform="matrix(1.3333333,0,0,-1.3333333,355.73107,506.1008)"
       clip-path="url(#clipPath102)" />
    <path
       id="path103"
       d="m 0,0 c -10.416,8.009 -21.646,21.011 -21.646,21.011 l 2.344,6.032 c 0,0 1.737,2.348 7.093,3.731 7.017,1.811 30.696,2.067 40.128,-0.169 5.699,-1.35 7.174,-9.594 7.174,-9.594 v -3.33 L 19.858,-1.112 1.12,0.083"
       style="fill:#fab36e;fill-opacity:1;fill-rule:nonzero;stroke:none"
       transform="matrix(1.3333333,0,0,-1.3333333,355.73107,506.1008)"
       clip-path="url(#clipPath104)" />
    <path
       id="path105"
       d="m 0,0 c 6.078,2.279 31.834,0.406 31.834,0.406 0,0 -5.206,-36.285 -5.471,-47.158 -0.266,-10.872 2.366,-29.455 2.366,-29.455 0,0 1.394,-9.72 -4.811,-16.117 -1.953,-2.013 -5.054,-4.515 -12.392,-3.537 -2.055,0.274 -7.655,-0.15 -10.427,3.537 -2.002,2.664 -3.762,10.789 -2.112,14.277 5.67,11.989 9.508,19.174 11.305,35.013 C 11.454,-32.791 0,0 0,0"
       style="fill:#fab876;fill-opacity:1;fill-rule:nonzero;stroke:none"
       transform="matrix(1.3333333,0,0,-1.3333333,347.22147,498.92467)"
       clip-path="url(#clipPath106)" />
    <path
       id="path107"
       d="m 0,0 c 6.078,2.279 17.727,5.066 19.715,0.082 1.988,-4.983 -0.141,-38.166 -0.407,-49.038 -0.266,-10.873 -0.663,-26.267 -0.663,-26.267 0,0 0.731,-8.573 -2.998,-9.901 -4.098,-1.459 -8.687,-2.115 -11.361,-0.954 -2.675,1.161 -4.823,4.568 -4.823,9.026 0,4.458 8.986,31.385 9.366,41.262 C 9.209,-25.913 0,0 0,0"
       style="fill:#fbc87d;fill-opacity:1;fill-rule:nonzero;stroke:none"
       transform="matrix(1.3333333,0,0,-1.3333333,350.81787,507.69387)"
       clip-path="url(#clipPath108)" />
    <path
       id="path109"
       d="M 0,0 C 0.702,4.568 1.81,6.738 2.604,4.666 3.558,2.18 3.139,-10.559 3.265,-15.912 3.438,-23.244 2.277,-35.328 2.277,-35.328 c 0,0 0.184,-3.315 -2.078,-4.856 -2.083,-1.42 -5.098,-0.737 -5.098,-0.737 0,0 -1.39,0.321 -3.14,1.883 -1.071,0.957 -2.165,2.877 -1.477,5.425 0.785,2.904 2.632,8.004 3.163,9.897 C -5.393,-20.294 -0.373,-2.431 0,0"
       style="fill:#fbdc81;fill-opacity:1;fill-rule:nonzero;stroke:none"
       transform="matrix(1.3333333,0,0,-1.3333333,362.7896,563.96533)"
       clip-path="url(#clipPath110)" />
    <path
       id="path111"
       d="m 0,0 c -0.796,-3.318 -2.028,-7.022 -3.264,-10.781 -1.129,-3.432 -3.311,-7.985 -1.978,-9.757 1.05,-1.397 3.017,-1.73 3.797,-0.777 1.212,1.481 1.162,6.38 1.162,6.38 0,0 0.759,5.995 1.173,8.902 0.415,2.906 1.006,5.292 1.282,6.854 0.276,1.561 0.879,5.41 -0.046,5.41 C 1.202,6.231 0.796,3.318 0,0"
       style="fill:#f7ef4c;fill-opacity:1;fill-rule:nonzero;stroke:none"
       transform="matrix(1.3333333,0,0,-1.3333333,358.86827,585.40893)"
       clip-path="url(#clipPath112)" />
    <path
       id="path113"
       d="m 0,0 c 1.45,-0.944 1.45,-0.944 2.27,-1.183 0.821,-0.239 2.149,-0.413 4.278,-0.241 4.331,0.351 6.787,-0.325 7.775,-0.555 0.988,-0.231 4.961,-1.915 7.625,-0.46 2.664,1.456 4.894,2.961 6.035,4.907 1.141,1.947 1.99,4.453 1.99,4.453 C 29.593,7.511 19.733,3.408 17.784,3.24 15.444,3.038 8.767,6.039 8.767,6.039 Z"
       style="fill:#b75a59;fill-opacity:1;fill-rule:nonzero;stroke:none"
       transform="matrix(1.3333333,0,0,-1.3333333,371.68027,623.77933)"
       clip-path="url(#clipPath114)" />
    <path
       id="path115"
       d="m 0,0 c 0.457,-3.022 3.643,-5.75 9.669,-6.685 4.737,-0.735 11.121,-1.003 14.08,1.457 2.507,2.085 2.81,9.064 2.81,9.064 0,0 -7.981,-6.059 -14.333,-6.284 C 5.875,-2.672 0,0 0,0"
       style="fill:#c96d51;fill-opacity:1;fill-rule:nonzero;stroke:none"
       transform="matrix(1.3333333,0,0,-1.3333333,347.958,620.84213)"
       clip-path="url(#clipPath116)" />
    <path
       id="path117"
       d="M 0,0 C 0.351,-1.903 4.463,-25.099 6.213,-20.361 7.537,-16.774 5.242,-5.354 4.641,-1.946 4.245,0.301 -0.351,1.903 0,0"
       style="fill:#f7ef4c;fill-opacity:1;fill-rule:nonzero;stroke:none"
       transform="matrix(1.3333333,0,0,-1.3333333,355.33893,510.9604)"
       clip-path="url(#clipPath118)" />
    <path
       id="path119"
       d="m 0,0 c 5.029,-0.373 20.676,-0.186 23.284,2.235 2.608,2.422 12.947,9.557 13.086,12.882 0.139,3.324 -0.116,5.839 -0.116,5.839 0,0 -35.182,-10.296 -41.679,-9.758 -6.496,0.537 -18.045,-0.013 -18.045,-0.013 0,0 5.977,-8.018 7.645,-8.95 C -14.157,1.304 0,0 0,0"
       style="fill:#f49f6b;fill-opacity:1;fill-rule:nonzero;stroke:none"
       transform="matrix(1.3333333,0,0,-1.3333333,374.56627,698.8112)"
       clip-path="url(#clipPath120)" />
    <g
       opacity="0.600006"
       id="g122"
       clip-path="url(#clipPath123)">
      <path
         d="m 0,0 c 0,0 4.012,-0.522 7.143,1.043 3.13,1.566 4.435,3.131 10.695,3.131 6.261,0 4.775,-4.495 10.253,-5.364 5.478,-0.87 5.4,1.364 10.095,1.712 4.696,0.348 11.334,-1.565 15.392,-3.913 4.057,-2.348 16.423,-1.833 16.423,-1.833 0,0 -20.597,-14.08 -27.641,-15.646 -7.043,-1.565 -7.84,1.938 -14.883,1.155 -7.044,-0.782 -9.886,-1.797 -13.552,1.193 C 11.964,-16.921 -0.269,-1.942 0,0"
         style="fill:#693536;fill-opacity:1;fill-rule:nonzero;stroke:none"
         transform="matrix(1.3333333,0,0,-1.3333333,329.08507,664.00027)"
         clip-path="url(#clipPath121)"
         id="path122" />
    </g>
    <path
       id="path124"
       d="m 0,0 c 6.641,-0.685 13.946,0.781 15.457,1.149 3.705,0.903 9.208,1.162 13.989,0.098 4.65,-1.034 15.412,2.081 15.412,2.081 0,0 -13.449,-9.059 -19.423,-12.189 -5.707,-2.99 -9.687,-4.328 -12.524,-3.725 -2.837,0.604 -6.246,1.788 -8.412,1.675 -2.167,-0.112 -7.083,-1.59 -9.591,-0.921 -2.846,0.76 -4.861,0.811 -9.409,5.46 -5.115,5.228 -10.642,14.219 -10.642,14.219 0,0 10.763,-1.806 13.893,-3.567 C -8.12,2.519 0,0 0,0"
       style="fill:#da4b1f;fill-opacity:1;fill-rule:nonzero;stroke:none"
       transform="matrix(1.3333333,0,0,-1.3333333,362.60867,675.4024)"
       clip-path="url(#clipPath125)" />
    <path
       id="path126"
       d="m 0,0 c 15.431,-1.192 19.174,-6.485 22.304,-7.174 3.131,-0.689 10.566,-0.978 13.305,0 2.739,0.978 6.853,1.556 10.369,1.565 3.516,0.009 7.083,-0.805 9.587,-1.174 2.504,-0.368 13.136,1.761 13.136,1.761 0,0 -8.031,-0.432 -10.636,0.234 -2.604,0.666 -6.232,2.163 -10.168,3.39 -3.936,1.227 -7.914,2.833 -11.377,2.05 -3.464,-0.782 -4.685,-1.128 -6.125,-1.738 -1.441,-0.61 -5.687,0.12 -6.817,1.1 C 22.448,0.995 20.9,4.093 17.803,4.181 14.707,4.268 12.212,4.281 7.67,2.369 3.128,0.457 0,0 0,0"
       style="fill:#b53a21;fill-opacity:1;fill-rule:nonzero;stroke:none"
       transform="matrix(1.3333333,0,0,-1.3333333,331.3044,664.17413)"
       clip-path="url(#clipPath127)" />
    <path
       id="path128"
       d="m 0,0 c -1.84,0.11 -3.55,0.31 -4.69,0.56 -3.13,0.68 -6.872,5.98 -22.302,7.17 0,0 3.132,0.46 7.672,2.37 4.54,1.91 7.04,1.9 10.13,1.81 3.1,-0.09 4.65,-3.19 5.78,-4.17 0.5,-0.43 1.63,-0.82 2.85,-1.06 z"
       style="fill:#a73223;fill-opacity:1;fill-rule:nonzero;stroke:none"
       transform="matrix(1.3333333,0,0,-1.3333333,367.29333,674.48027)"
       clip-path="url(#clipPath129)" />
    <g
       opacity="0.600006"
       id="g131"
       clip-path="url(#clipPath132)">
      <path
         d="m 0,0 c 0.768,1.297 4.722,1.286 9.32,0.223 4.598,-1.063 5.983,-1.879 8.624,-1.781 2.641,0.097 5.32,1.073 10.701,1.855 5.38,0.783 7.358,-0.074 10.242,-0.074 2.884,0 2.741,-3.057 0.874,-4.901 -2.999,-2.961 -6.894,-3.684 -10.22,-4.27 -3.326,-0.587 -7.587,0.696 -10.878,0.892 C 15.371,-7.861 10.929,-8.988 7.016,-8.205 3.103,-7.422 1.761,-4.982 0.899,-3.808 0.432,-2.436 -0.768,-1.297 0,0"
         style="fill:#f69b47;fill-opacity:1;fill-rule:nonzero;stroke:none"
         transform="matrix(1.3333333,0,0,-1.3333333,345.0012,674.87653)"
         clip-path="url(#clipPath130)"
         id="path131" />
    </g>
    <path
       id="path133"
       d="m 0,0 c 0.802,1.089 3.58,0.12 5.055,-0.024 1.178,-0.116 5.973,-2.071 9.927,-2.398 4.095,-0.338 7.195,0.631 7.882,0.898 1.973,0.764 6.237,0.879 6.728,0.391 0.63,-0.627 -2.523,-1.564 -3.496,-1.892 -3.104,-1.046 -3.602,-1.333 -11.405,-0.394 -2.704,0.325 -4.954,0.076 -5.94,0 C 7.912,-3.485 4.628,-2.753 4.036,-2.597 1.873,-2.028 0.164,-0.908 0,0"
       style="fill:#f7ef4c;fill-opacity:1;fill-rule:nonzero;stroke:none"
       transform="matrix(1.3333333,0,0,-1.3333333,347.5104,674.63613)"
       clip-path="url(#clipPath134)" />
    <path
       id="path135"
       d="m 0,0 c -2.806,-1.004 -19.69,-1.671 -25.016,0.029 -5.326,1.701 -9.515,3.917 -11.083,7.019 -1.568,3.103 -0.06,4.253 2.061,4.743 C -31.917,12.281 -17.262,4.585 -13,5.632 -8.738,6.678 -1.04,6.875 1.646,8.246 4.332,9.617 7.385,6.084 7.385,6.084 7.385,6.084 8.937,5.4 6.899,3.74 2.26,-0.041 0,0 0,0"
       style="fill:#fab76b;fill-opacity:1;fill-rule:nonzero;stroke:none"
       transform="matrix(1.3333333,0,0,-1.3333333,320.41387,538.63413)"
       clip-path="url(#clipPath136)" />
    <path
       id="path137"
       d="m 0,0 c -0.789,-5.619 8.356,-11.547 20.425,-13.241 12.07,-1.693 22.493,1.488 23.281,7.107 C 44.495,-0.515 35.35,5.413 23.281,7.107 11.212,8.8 0.789,5.619 0,0"
       style="fill:#f4f4f4;fill-opacity:1;fill-rule:nonzero;stroke:none"
       transform="matrix(1.3333333,0,0,-1.3333333,268.47813,517.53773)"
       clip-path="url(#clipPath138)" />
    <path
       id="path139"
       d="m 0,0 c -1.189,-5.505 3.601,-11.209 10.698,-12.742 7.097,-1.533 13.814,1.687 15.003,7.192 C 26.889,-0.046 22.1,5.659 15.003,7.192 7.906,8.725 1.189,5.505 0,0"
       style="fill:#a4733e;fill-opacity:1;fill-rule:nonzero;stroke:none"
       transform="matrix(1.3333333,0,0,-1.3333333,272.92787,515.72347)"
       clip-path="url(#clipPath140)" />
    <path
       id="path141"
       d="m 0,0 c 0,-3.598 -2.916,-6.514 -6.514,-6.514 -3.598,0 -6.514,2.916 -6.514,6.514 0,3.598 2.916,6.514 6.514,6.514 C -2.916,6.514 0,3.598 0,0"
       style="fill:#231f20;fill-opacity:1;fill-rule:nonzero;stroke:none"
       transform="matrix(1.3333333,0,0,-1.3333333,295.23947,522.26493)"
       clip-path="url(#clipPath142)" />
    <path
       id="path143"
       d="M 0,0 C 0.192,-0.295 0.644,-0.816 1.577,-0.439 2.509,-0.062 2.189,-0.698 3.668,0.531 5.147,1.76 5.344,2.788 5.405,3.029 5.466,3.271 4.378,3.928 3.9,3.493 3.422,3.059 3.08,2.513 2.423,1.96 1.767,1.406 1.018,1.153 0.405,0.882 -0.207,0.611 -0.19,0.185 0,0"
       style="fill:#db4a53;fill-opacity:1;fill-rule:nonzero;stroke:none"
       transform="matrix(1.3333333,0,0,-1.3333333,286.53467,529.24733)"
       clip-path="url(#clipPath144)" />
    <path
       id="path145"
       d="m 0,0 c -0.69,0.193 -1.401,0.443 -1.529,0.443 -0.128,0 -0.051,-1.558 0.117,-1.903 0.167,-0.345 1.174,-0.879 1.611,-0.879 0.437,0 1.176,0.319 1.334,0.637 0.157,0.318 0.34,1.226 0.263,1.245 -0.078,0.019 -0.47,0.114 -0.739,0.18 C 0.787,-0.211 0.69,-0.193 0,0"
       style="fill:#f7ef4c;fill-opacity:1;fill-rule:nonzero;stroke:none"
       transform="matrix(1.3333333,0,0,-1.3333333,277.954,521.59147)"
       clip-path="url(#clipPath146)" />
    <g
       opacity="0.300003"
       id="g148"
       clip-path="url(#clipPath149)">
      <path
         d="m 0,0 c 14.124,-0.759 22.515,-1.467 24.244,-1.229 1.728,0.239 0.171,-0.791 0,0 -0.171,0.792 -6.757,6.069 -23.117,6.506 -16.361,0.437 -23.814,2.609 -23.814,2.609 l 1.436,-2.871 c 0,0 7.127,-4.256 21.251,-5.015"
         style="fill:#3b1c14;fill-opacity:1;fill-rule:nonzero;stroke:none"
         transform="matrix(1.3333333,0,0,-1.3333333,296.11373,524.396)"
         clip-path="url(#clipPath147)"
         id="path148" />
    </g>
    <path
       id="path150"
       d="m 0,0 c -1.374,2.315 -8.231,7.508 -22.864,7.659 -14.634,0.15 -16.637,-0.593 -19.925,-1.654 -3.289,-1.061 -5.336,-2.337 -3.955,-4.339 1.38,-2.002 18.033,-3.09 28.03,-2.515 9.998,0.576 21.133,-3.496 21.133,-3.496 z"
       style="fill:#fac387;fill-opacity:1;fill-rule:nonzero;stroke:none"
       transform="matrix(1.3333333,0,0,-1.3333333,323.8052,514.63307)"
       clip-path="url(#clipPath151)" />
    <path
       id="path152"
       d="m 0,0 c -3.786,0.259 -10.119,-0.045 -18.174,0.227 -8.054,0.271 -16.187,2.64 -17.483,2.024 -1.295,-0.616 -0.493,-0.743 1.854,-1.271 2.348,-0.528 19.444,-2.226 25.44,-1.78 C 3.166,0.056 10.81,-3.375 12.63,-5.246 13.642,-6.287 14.484,-5.669 11.373,-3.544 8.562,-1.624 3.786,-0.259 0,0"
       style="fill:#d9744d;fill-opacity:1;fill-rule:nonzero;stroke:none"
       transform="matrix(1.3333333,0,0,-1.3333333,308.8404,513.88173)"
       clip-path="url(#clipPath153)" />
    <path
       id="path154"
       d="m 0,0 c -0.833,-1.384 -8.265,-5.984 -19.942,-4.438 -11.677,1.545 -20.684,7.274 -21.796,9.068 -1.113,1.793 -0.432,2.484 0.408,2.907 0.84,0.423 7.575,-7.828 23.223,-8.543 15.648,-0.715 18.289,2.305 18.289,2.305 z"
       style="fill:#fcd28e;fill-opacity:1;fill-rule:nonzero;stroke:none"
       transform="matrix(1.3333333,0,0,-1.3333333,324.20533,530.94693)"
       clip-path="url(#clipPath155)" />
    <path
       id="path156"
       d="m 0,0 c 3.801,-6.232 3.93,-5.346 8.454,-8.523 4.525,-3.177 18.229,-4.877 26.118,-4.434 7.89,0.443 13.117,3.992 11.839,3.33 -1.279,-0.662 -4.821,-6.579 -23.613,-3.942 -14.223,2.765 -16.574,5.336 -18.997,7.337 -4.037,3.335 -4.287,6.3 -4.287,6.3"
       style="fill:#855333;fill-opacity:1;fill-rule:nonzero;stroke:none"
       transform="matrix(1.3333333,0,0,-1.3333333,266.3016,514.54587)"
       clip-path="url(#clipPath157)" />
    <path
       id="path158"
       d="m 0,0 c 0.568,0.711 -0.073,1.971 -1.803,5.13 -5.572,3.03 -13.387,4.154 -21.065,3.978 -8.163,-0.187 -14.663,-0.025 -20.725,1.265 -7.38,1.57 -12.481,3.671 -12.481,3.671 0,0 6.592,-3.801 12.629,-4.96 6.429,-1.234 9.733,-2.457 18.522,-2.108 6.508,0.259 14.067,0.064 20.315,-2.958 C -2.257,2.881 -0.568,-0.711 0,0"
       style="fill:#5a3114;fill-opacity:1;fill-rule:nonzero;stroke:none"
       transform="matrix(1.3333333,0,0,-1.3333333,329.34427,527.90853)"
       clip-path="url(#clipPath159)" />
    <path
       id="path160"
       d="m 0,0 c -2.862,2.037 -3.648,2.074 -3.648,2.074 l 5.881,-4.774 -6.168,1.332 8.55,-3.522 -4.998,-0.528 7.46,-1.081 -3.092,-1.31 6.094,-0.138"
       style="fill:#855333;fill-opacity:1;fill-rule:nonzero;stroke:none"
       transform="matrix(1.3333333,0,0,-1.3333333,266.14307,517.7136)"
       clip-path="url(#clipPath161)" />
    <path
       id="path162"
       d="m 0,0 c 2.739,-1.174 19.551,-2.873 24.971,-1.502 5.42,1.372 9.737,3.327 11.492,6.327 1.754,3.001 0.32,4.242 -1.767,4.861 C 32.609,10.304 17.51,3.52 13.32,4.825 9.13,6.13 -3.285,6.587 -5.881,8.119 c -2.597,1.533 -2.863,0.206 -2.863,0.206 0,0 -1.715,-0.611 2.863,-4.468 C -1.304,0 0,0 0,0"
       style="fill:#f9af77;fill-opacity:1;fill-rule:nonzero;stroke:none"
       transform="matrix(1.3333333,0,0,-1.3333333,435.5852,545.63573)"
       clip-path="url(#clipPath163)" />
    <path
       id="path164"
       d="m 0,0 c 0,-5.674 -9.88,-10.273 -22.067,-10.273 -12.188,0 -22.068,4.599 -22.068,10.273 0,5.674 9.88,10.273 22.068,10.273 C -9.88,10.273 0,5.674 0,0"
       style="fill:#f4f4f4;fill-opacity:1;fill-rule:nonzero;stroke:none"
       transform="matrix(1.3333333,0,0,-1.3333333,479.65253,529.4624)"
       clip-path="url(#clipPath165)" />
    <path
       id="path166"
       d="m 0,0 c 0,-5.674 -6.068,-10.273 -13.554,-10.273 -7.485,0 -13.553,4.599 -13.553,10.273 0,5.674 6.068,10.273 13.553,10.273 C -6.068,10.273 0,5.674 0,0"
       style="fill:#a4733e;fill-opacity:1;fill-rule:nonzero;stroke:none"
       transform="matrix(1.3333333,0,0,-1.3333333,462.56213,528.4188)"
       clip-path="url(#clipPath167)" />
    <path
       id="path168"
       d="m 0,0 c 0,-3.439 -2.788,-6.226 -6.226,-6.226 -3.439,0 -6.227,2.787 -6.227,6.226 0,3.439 2.788,6.226 6.227,6.226 C -2.788,6.226 0,3.439 0,0"
       style="fill:#231f20;fill-opacity:1;fill-rule:nonzero;stroke:none"
       transform="matrix(1.3333333,0,0,-1.3333333,450.22947,531.43387)"
       clip-path="url(#clipPath169)" />
    <path
       id="path170"
       d="M 0,0 C 0.211,-0.282 0.697,-0.771 1.602,-0.332 2.508,0.106 2.231,-0.549 3.624,0.776 5.017,2.102 5.145,3.14 5.189,3.385 5.234,3.63 4.105,4.213 3.657,3.747 3.209,3.282 2.904,2.714 2.286,2.118 1.669,1.522 0.938,1.219 0.345,0.907 -0.248,0.596 -0.202,0.172 0,0"
       style="fill:#db4a53;fill-opacity:1;fill-rule:nonzero;stroke:none"
       transform="matrix(1.3333333,0,0,-1.3333333,441.90693,538.644)"
       clip-path="url(#clipPath171)" />
    <path
       id="path172"
       d="m 0,0 c -0.466,0.018 -1.504,0.057 -1.504,0.057 -0.069,-1.106 0.018,-1.6 0.328,-2.2 0.434,-0.842 0.486,-0.917 0.765,-0.985 0.279,-0.068 1.526,-0.22 1.919,0.374 0.393,0.594 0.276,1.102 0.301,1.493 0.025,0.392 -0.132,1.206 -0.234,1.209 C 1.473,-0.049 0.466,-0.018 0,0"
       style="fill:#f7ef4c;fill-opacity:1;fill-rule:nonzero;stroke:none"
       transform="matrix(1.3333333,0,0,-1.3333333,434.87693,531.50973)"
       clip-path="url(#clipPath173)" />
    <g
       opacity="0.300003"
       id="g175"
       clip-path="url(#clipPath176)">
      <path
         d="m 0,0 c 9.285,-0.111 18.086,0.291 20.402,0.867 1.433,0.357 3.275,2.733 3.275,2.733 0,0 -27.469,0.472 -28.79,0.978 -1.321,0.507 -11.739,0.806 -14.089,0 -1.649,-0.565 -4.475,-2.393 -4.475,-2.393 0,0 14.392,-2.074 23.677,-2.185"
         style="fill:#3b1c14;fill-opacity:1;fill-rule:nonzero;stroke:none"
         transform="matrix(1.3333333,0,0,-1.3333333,451.3084,532.666)"
         clip-path="url(#clipPath174)"
         id="path175" />
    </g>
    <path
       id="path177"
       d="M 0,0 C 1.682,1.915 9.194,5.733 23.707,4.016 38.219,2.299 40.099,1.374 43.209,0 c 3.109,-1.374 4.385,-3.639 2.74,-5.271 -1.645,-1.632 -25.739,-0.154 -35.56,1.632 -9.82,1.785 -14.534,-3.129 -14.534,-3.129 z"
       style="fill:#fac387;fill-opacity:1;fill-rule:nonzero;stroke:none"
       transform="matrix(1.3333333,0,0,-1.3333333,425.26613,519.67133)"
       clip-path="url(#clipPath178)" />
    <path
       id="path179"
       d="M 0,0 C 0,0 -0.614,3.526 9.827,5.16 18.625,6.537 24.527,3.11 33.268,3.581 39.08,3.894 42.1,3.484 49.799,4.265 53.92,4.683 52.6,3.333 50.539,3.2 48.479,3.067 29.745,2.911 26.864,3.223 23.983,3.534 14.631,4.81 11.496,4.683 8.361,4.557 0,0 0,0"
       style="fill:#da5951;fill-opacity:1;fill-rule:nonzero;stroke:none"
       transform="matrix(1.3333333,0,0,-1.3333333,419.7392,528.69587)"
       clip-path="url(#clipPath180)" />
    <path
       id="path181"
       d="m 0,0 c 0.633,-1.486 6.8,-6.03 18.578,-6.123 11.779,-0.092 22.048,3.286 23.399,4.907 1.351,1.621 0.773,2.4 0,2.935 C 41.204,2.255 33.387,-4.98 17.792,-3.513 2.196,-2.046 0,1.311 0,1.311 Z"
       style="fill:#fbc98c;fill-opacity:1;fill-rule:nonzero;stroke:none"
       transform="matrix(1.3333333,0,0,-1.3333333,422.60253,534.9964)"
       clip-path="url(#clipPath182)" />
    <path
       id="path183"
       d="m 0,0 c -4.63,-5.643 -4.634,-4.748 -9.557,-7.265 -4.922,-2.517 -18.729,-2.296 -26.481,-0.761 -7.751,1.535 -12.434,5.775 -11.26,4.943 1.174,-0.833 3.859,-7.185 22.835,-7.185 14.47,0.761 17.155,2.98 19.833,4.625 C -0.169,-2.902 0.49,0 0.49,0"
       style="fill:#855333;fill-opacity:1;fill-rule:nonzero;stroke:none"
       transform="matrix(1.3333333,0,0,-1.3333333,482.22373,526.802)"
       clip-path="url(#clipPath184)" />
    <path
       id="path185"
       d="m 0,0 c -0.463,0.783 1.748,3.581 4.874,4.477 6.15,2.257 10.225,1.045 17.805,-0.196 8.057,-1.32 15.75,-0.503 21.932,-0.068 7.527,0.53 12.871,1.902 12.871,1.902 0,0 -6.145,-3.763 -12.285,-4.072 C 38.659,1.714 34.351,2.323 25.564,2.725 16.777,3.127 15.015,5.582 5.07,2.093 2.605,1.228 0.463,-0.783 0,0"
       style="fill:#5a3114;fill-opacity:1;fill-rule:nonzero;stroke:none"
       transform="matrix(1.3333333,0,0,-1.3333333,417.93587,531.27333)"
       clip-path="url(#clipPath186)" />
    <path
       id="path187"
       d="m 0,0 c 3.296,1.387 4.09,1.257 4.09,1.257 l -6.902,-3.426 h 6.446 l -9.296,-1.638 4.876,-1.572 -7.681,0.519 2.805,-1.935 -6.115,1.152"
       style="fill:#855333;fill-opacity:1;fill-rule:nonzero;stroke:none"
       transform="matrix(1.3333333,0,0,-1.3333333,479.79973,531.43387)"
       clip-path="url(#clipPath188)" />
    <path
       id="path189"
       d="m 0,0 c -2.243,1.251 -3.56,3.425 -3.56,3.425 0,0 2.955,-2.903 5.393,-3.391 C 4.271,-0.453 0,0 0,0"
       style="fill:#5a3114;fill-opacity:1;fill-rule:nonzero;stroke:none"
       transform="matrix(1.3333333,0,0,-1.3333333,274.422,515.29947)"
       clip-path="url(#clipPath190)" />
    <path
       id="path191"
       d="m 0,0 c -2.685,1.138 -4.421,3.744 -4.421,3.744 0,0 3.676,-3.188 6.5,-3.249 C 4.902,0.433 0,0 0,0"
       style="fill:#5a3114;fill-opacity:1;fill-rule:nonzero;stroke:none"
       transform="matrix(1.3333333,0,0,-1.3333333,280.55973,516.07573)"
       clip-path="url(#clipPath192)" />
    <path
       id="path193"
       d="m 0,0 c -1.917,0.969 -3.056,3.052 -3.056,3.052 0,0 2.537,-2.596 4.613,-2.732 C 3.632,0.184 0,0 0,0"
       style="fill:#5a3114;fill-opacity:1;fill-rule:nonzero;stroke:none"
       transform="matrix(1.3333333,0,0,-1.3333333,285.95307,516.2636)"
       clip-path="url(#clipPath194)" />
    <path
       id="path195"
       d="m 0,0 c 2.657,1.202 4.33,3.85 4.33,3.85 0,0 -3.599,-3.276 -6.42,-3.406 C -4.911,0.315 0,0 0,0"
       style="fill:#5a3114;fill-opacity:1;fill-rule:nonzero;stroke:none"
       transform="matrix(1.3333333,0,0,-1.3333333,477.1044,526.56133)"
       clip-path="url(#clipPath196)" />
    <path
       id="path197"
       d="m 0,0 c 3.262,1.306 5.43,4.013 5.43,4.013 0,0 -4.518,-3.412 -7.91,-3.655 C -5.873,0.114 0,0 0,0"
       style="fill:#5a3114;fill-opacity:1;fill-rule:nonzero;stroke:none"
       transform="matrix(1.3333333,0,0,-1.3333333,481.61467,527.07107)"
       clip-path="url(#clipPath198)" />
    <path
       id="path199"
       d="m 0,0 c 2.758,1.261 4.481,4.115 4.481,4.115 0,0 -3.724,-3.504 -6.659,-3.594 C -5.113,0.431 0,0 0,0"
       style="fill:#5a3114;fill-opacity:1;fill-rule:nonzero;stroke:none"
       transform="matrix(1.3333333,0,0,-1.3333333,470.91587,527.14213)"
       clip-path="url(#clipPath200)" />
    <path
       id="path201"
       d="m 0,0 c 2.651,1.215 4.311,3.87 4.311,3.87 0,0 -3.583,-3.293 -6.403,-3.436 C -4.913,0.292 0,0 0,0"
       style="fill:#5a3114;fill-opacity:1;fill-rule:nonzero;stroke:none"
       transform="matrix(1.3333333,0,0,-1.3333333,463.1992,526.97627)"
       clip-path="url(#clipPath202)" />
    <path
       id="path203"
       d="m 0,0 c -2.348,1.133 -3.268,3.502 -3.268,3.502 0,0 3.262,-3.721 5.773,-3.989 C 5.015,-0.755 0,0 0,0"
       style="fill:#5a3114;fill-opacity:1;fill-rule:nonzero;stroke:none"
       transform="matrix(1.3333333,0,0,-1.3333333,266.89987,513.57947)"
       clip-path="url(#clipPath204)" />
    <path
       id="path205"
       d="M 0,0 -1.798,10.938 52.809,14.268 86.853,-0.993 55.744,2.724 Z"
       style="fill:#b97043;fill-opacity:1;fill-rule:nonzero;stroke:none"
       transform="matrix(1.3333333,0,0,-1.3333333,404.9196,497.1104)"
       clip-path="url(#clipPath206)" />
    <path
       id="path207"
       d="M 0,0 V 10.313 L -43.655,18.26 -63.391,7.052 -38.674,9.13 Z"
       style="fill:#b87042;fill-opacity:1;fill-rule:nonzero;stroke:none"
       transform="matrix(1.3333333,0,0,-1.3333333,326.8696,491.83773)"
       clip-path="url(#clipPath208)" />
    <path
       id="path209"
       d="m 0,0 c 55.634,-33.206 93.141,-44.042 104.451,-60.373 0,0 -1.277,35.551 -7.051,49.374 C 79.4,32.098 65.119,44.211 37.231,54.902 22.362,60.602 13.176,40.333 9.601,31.804 7.112,25.866 0,0 0,0"
       style="fill:#6f4324;fill-opacity:1;fill-rule:nonzero;stroke:none"
       transform="matrix(1.3333333,0,0,-1.3333333,417.854,382.28453)"
       clip-path="url(#clipPath210)" />
    <path
       id="path211"
       d="m 0,0 c 12.715,-2.565 -19.977,-78.101 -19.977,-78.101 -57.731,5.841 -86.694,-5.441 -129.675,-17.914"
       style="fill:#855333;fill-opacity:1;fill-rule:nonzero;stroke:none"
       transform="matrix(1.3333333,0,0,-1.3333333,444.49053,278.1496)"
       clip-path="url(#clipPath212)" />
    <path
       id="path213"
       d="m 0,0 c -8.199,11.472 -54.847,22.089 -87.119,8.571 -32.272,-13.518 -114.408,-78.191 -128.717,-156.049 -11.166,-60.762 -43.226,-82.204 -43.226,-82.204 0,0 32.264,13.889 51.505,25.521 19.241,11.633 30.265,30.991 30.265,30.991 0,0 3.936,7.184 10.137,21.132 16.11,36.237 40.495,75.234 74.193,98.787 33.697,23.553 78.531,8.82 78.531,8.82 z"
       style="fill:#a4733e;fill-opacity:1;fill-rule:nonzero;stroke:none"
       transform="matrix(1.3333333,0,0,-1.3333333,454.30853,248.7864)"
       clip-path="url(#clipPath214)" />
    <path
       id="path215"
       d="m 0,0 c 13.323,2.645 6.588,10.545 12.431,18.934 8.176,11.736 8.578,22.01 8.578,22.01 0,0 -77.409,37.779 -134.837,-25.736 -65.312,-72.236 -81.136,-221.944 -80.941,-220.224 0.492,4.338 45.352,131.452 69.985,160.067 24.295,28.222 46.917,51.649 78.258,52.767 C -15.184,8.936 0,0 0,0"
       style="fill:#986b4b;fill-opacity:1;fill-rule:nonzero;stroke:none"
       transform="matrix(1.3333333,0,0,-1.3333333,411.3332,346.23733)"
       clip-path="url(#clipPath216)" />
    <path
       id="path217"
       d="m 0,0 c -7.249,-25.985 -6.924,-92.317 -19.225,-116.115 -12.3,-23.798 -22.364,-35.049 -27.955,-40.047 -5.591,-4.998 32.547,10.251 42.552,23.873 10.004,13.622 17.532,19.944 19.432,33.602 1.899,13.657 0.153,13.731 0.271,25.659 0.131,13.263 2.513,21.989 1.271,27.512 -2.485,11.046 -3.454,14.101 -4.368,28.923 C 11.322,-5.956 -2.404,-0.678 0,0"
       style="fill:#a36934;fill-opacity:1;fill-rule:nonzero;stroke:none"
       transform="matrix(1.3333333,0,0,-1.3333333,209.16347,510.73267)"
       clip-path="url(#clipPath218)" />
    <path
       id="path219"
       d="m 0,0 c 19.343,-22.942 125.686,-132.905 143.486,-209.092 16.803,-71.922 -2.24,-85.139 -2.24,-85.139 0,0 -46.846,-36.676 -45.842,-32.203 1.004,4.473 31.224,81.522 -9.105,148.593 -40.33,67.071 -119.005,148.326 -119.005,148.326 0,0 11.362,45.174 20.167,39.957 C -3.319,4.979 0,0 0,0"
       style="fill:#6f4324;fill-opacity:1;fill-rule:nonzero;stroke:none"
       transform="matrix(1.3333333,0,0,-1.3333333,477.23427,292.63173)"
       clip-path="url(#clipPath220)" />
    <path
       id="path221"
       d="m 0,0 c -36.115,4.743 -88.382,9.928 -117.368,-26.48 -26.621,-33.439 -34.713,-132.418 -62.207,-155.45 -20.615,-17.269 -44.411,-18.115 -44.411,-18.115 0,0 31.99,25.673 39.368,67.726 5.043,28.745 21.257,104.215 67.037,145.659 C -82.783,44.841 0,0 0,0"
       style="fill:#b48958;fill-opacity:1;fill-rule:nonzero;stroke:none"
       transform="matrix(1.3333333,0,0,-1.3333333,427.9084,320.9924)"
       clip-path="url(#clipPath222)" />
    <path
       id="path223"
       d="m 0,0 c 53.953,-42.531 60.459,-71.971 89.744,-151.252 14.81,-40.093 -0.417,-80.156 31.508,-102.994 43.54,-31.147 65.894,-27.328 65.894,-27.328 0,0 -31.773,19.805 -49.327,52.653 -20.122,37.656 28.385,86.609 -44.246,164.684 C 50.493,-17.929 0,0 0,0"
       style="fill:#855333;fill-opacity:1;fill-rule:nonzero;stroke:none"
       transform="matrix(1.3333333,0,0,-1.3333333,436.04707,316.9376)"
       clip-path="url(#clipPath224)" />
    <path
       id="path225"
       d="m 0,0 c 39.04,-30.888 124.227,-132.9 108.241,-192.564 -12.392,-46.251 -16.754,-64.983 -16.099,-85.139 0.811,-24.925 23.828,-50.382 23.828,-50.382 0,0 -50.683,20.495 -47.184,55.094 3.499,34.599 12.686,37.426 -3.769,97.95 -18.135,66.703 -80.92,142.797 -74.343,156.133 z"
       style="fill:#a47343;fill-opacity:1;fill-rule:nonzero;stroke:none"
       transform="matrix(1.3333333,0,0,-1.3333333,443.08973,313.94253)"
       clip-path="url(#clipPath226)" />
    <path
       id="path227"
       d="m 0,0 c 2.519,22.19 51.627,21.075 82.937,-22.396 31.31,-43.471 59.373,-114.439 81.705,-131.099 22.332,-16.66 55.255,-30.538 55.255,-30.538 0,0 -67.281,9.064 -99.296,34.724 -32.016,25.661 -24.058,97.314 -58.658,107.075 -34.6,9.762 -72.836,-0.239 -72.836,-0.239 z"
       style="fill:#92663d;fill-opacity:1;fill-rule:nonzero;stroke:none"
       transform="matrix(1.3333333,0,0,-1.3333333,458.264,258.49773)"
       clip-path="url(#clipPath228)" />
    <path
       id="path229"
       d="m 0,0 c 36.53,9.236 80.172,-14.852 102.062,-48.815 16.957,-26.309 60.179,-98.691 79.441,-120.201 36.008,-40.211 7.047,-77.398 7.047,-77.398 0.398,9.383 0.47,55.243 -22.372,66.908 -26.754,13.663 -41.051,74.741 -106.824,125.523 -21.592,16.671 -70.07,25.26 -70.07,25.26 z"
       style="fill:#a47343;fill-opacity:1;fill-rule:nonzero;stroke:none"
       transform="matrix(1.3333333,0,0,-1.3333333,456.21613,266.48253)"
       clip-path="url(#clipPath230)" />
    <path
       id="path231"
       d="m 0,0 c 53.953,-42.531 79.18,-48.547 108.466,-127.828 14.81,-40.093 16.255,-118.261 55.112,-123.826 38.35,-5.493 55.522,-10.733 55.522,-10.733 1.77,-2.047 -27.613,21.361 -49.134,62.406 C 150.139,-162.169 143.747,-83.313 97.41,-40.263 51.072,2.786 0,0 0,0"
       style="fill:#bf935b;fill-opacity:1;fill-rule:nonzero;stroke:none"
       transform="matrix(1.3333333,0,0,-1.3333333,441.92773,304.77947)"
       clip-path="url(#clipPath232)" />
    <path
       id="path233"
       d="m 0,0 c 1.724,-25.748 7.042,-41.077 26.799,-70.742 4.879,-7.324 30.071,-22.959 43.638,-45.741 24.292,-40.788 4.846,-98.352 4.846,-98.352 0,0 19.446,42.68 19.446,78.897 0,18.545 -18.938,43.438 -42.057,64.854 C 21.647,-42.346 4.25,20.69 4.25,20.69 Z"
       style="fill:#bf935b;fill-opacity:1;fill-rule:nonzero;stroke:none"
       transform="matrix(1.3333333,0,0,-1.3333333,429.40107,353.87213)"
       clip-path="url(#clipPath234)" />
    <path
       id="path235"
       d="m 0,0 c -6.743,-22.068 -23.54,-35.845 -29.372,-41.117 -5.832,-5.273 -19.166,-10.733 -19.166,-10.733 0,0 27.256,47.182 28.625,79.929 1.369,32.748 -1.76,67.294 13.441,98.821 15.202,31.527 71.367,66.9 111.579,70.193 21.121,1.73 50.548,-4.087 50.548,-4.087 l -3.546,-22.732 c 0,0 -27.364,5.336 -58.306,-3.671 C 62.861,157.595 30.553,124.445 21.147,99.612 5.305,57.782 0,0 0,0"
       style="fill:#a47343;fill-opacity:1;fill-rule:nonzero;stroke:none"
       transform="matrix(1.3333333,0,0,-1.3333333,219.59613,585.49547)"
       clip-path="url(#clipPath236)" />
    <g
       opacity="0.660004"
       id="g238"
       clip-path="url(#clipPath239)">
      <path
         d="m 0,0 c -0.53,0.029 -5.951,-0.903 -6.714,-1.034 -5.113,-0.884 -14.809,-5.3 -20.312,-12.053 -6.323,-7.76 -11.514,-15.45 -11.514,-15.45 0,0 12.347,11.562 18.416,15.189 6.069,3.628 -13.485,-13.741 -18.416,-20.656 -4.931,-6.915 18.47,18.735 26.752,21.563 15.59,5.324 23.415,6.449 21.447,7.277 -3.096,1.301 -12.925,-0.929 -12.925,-0.929 0,0 12.404,3.532 14.487,4.313 C 15.604,-0.136 0,0 0,0"
         style="fill:#f7ef4c;fill-opacity:1;fill-rule:nonzero;stroke:none"
         transform="matrix(1.3333333,0,0,-1.3333333,308.4324,294.00373)"
         clip-path="url(#clipPath237)"
         id="path238" />
    </g>
    <path
       id="path240"
       d="M 0,0 C -1.49,26.009 -28.242,54.24 -53.314,51.319 -74.23,48.882 -106.94,36.393 -117.91,12.326 c -10.971,-24.067 -12.559,-36.886 -15.722,-46.378 -7.2,-21.602 -17.203,-36.036 -17.203,-36.036 0,0 9.191,9.635 20.471,34.893 9.824,21.995 3.729,32.839 25.931,57.556 22.202,24.717 56.765,23.777 74.718,14.83 C -11.763,28.244 0,0 0,0"
       style="fill:#ce9e67;fill-opacity:1;fill-rule:nonzero;stroke:none"
       transform="matrix(1.3333333,0,0,-1.3333333,449.3096,257.80413)"
       clip-path="url(#clipPath241)" />
    <path
       id="path242"
       d="m 0,0 c -29.979,22.837 -58.426,14.979 -77.317,-9.928 -19.194,-25.306 -6.94,-40.208 -16.222,-57.713 -6.418,-12.104 -16.649,-19.924 -16.649,-19.924 0,0 18.394,10.192 22.433,22.345 5.5,16.546 -0.993,36.923 29.449,61.549 C -32.388,17.295 -1.787,-0.269 0,-5.754 1.36,-9.928 0,0 0,0"
       style="fill:#ce9e67;fill-opacity:1;fill-rule:nonzero;stroke:none"
       transform="matrix(1.3333333,0,0,-1.3333333,422.4084,358.46387)"
       clip-path="url(#clipPath243)" />
    <path
       id="path244"
       d="m 0,0 c 1.49,26.009 41.368,40.763 63.256,23.916 21.887,-16.848 34.482,-37.697 40.689,-54.399 6.206,-16.702 3.593,-18.674 19.696,-47.244 16.103,-28.57 62.502,-39.536 62.502,-39.536 0,0 -57.35,12.241 -71.142,39.536 -13.793,27.295 -13.046,43.915 -26.315,62.642 C 75.418,3.642 67.93,20.975 42.81,23.184 17.691,25.394 0,0 0,0"
       style="fill:#ce9e67;fill-opacity:1;fill-rule:nonzero;stroke:none"
       transform="matrix(1.3333333,0,0,-1.3333333,447.16973,281.63253)"
       clip-path="url(#clipPath245)" />
    <path
       id="path246"
       d="m 0,0 c 0,0 16.235,5.242 45.415,-7.432 27.411,-11.905 26.392,-25.3 31.908,-46.264 4.533,-17.231 0.165,-23.954 19.242,-50.63 11.463,-16.027 25.882,-15.214 25.882,-15.214 0,0 -23.351,-3.076 -33.723,12.735 -12.2,18.599 -11.97,29.565 -17.499,51.664 -3.101,12.393 -7.84,39.337 -33.693,45.784 C 11.678,-2.91 0,0 0,0"
       style="fill:#ce9e67;fill-opacity:1;fill-rule:nonzero;stroke:none"
       transform="matrix(1.3333333,0,0,-1.3333333,442.51147,320.37547)"
       clip-path="url(#clipPath247)" />
    <g
       opacity="0.690002"
       id="g249"
       clip-path="url(#clipPath250)">
      <path
         d="m 0,0 c -7.981,-2.188 -27.301,-20.076 -27.859,-21.158 -3.747,-7.264 -1.321,-8.602 8.231,-2.054 2.855,1.957 4.999,2.768 4.999,2.768 l -1.727,-4.311 c 0,0 -1.84,-5.126 -1.046,-6.498 1.299,-2.242 19.105,18.434 23.549,20.523 4.443,2.089 19.757,8.356 13.445,9.392 -6.312,1.037 -20.154,-5.345 -20.154,-5.345 0,0 22.323,10.778 14.541,9.808 C 6.197,2.155 0,0 0,0"
         style="fill:#f7ef4c;fill-opacity:1;fill-rule:nonzero;stroke:none"
         transform="matrix(1.3333333,0,0,-1.3333333,279.22853,360.14267)"
         clip-path="url(#clipPath248)"
         id="path249" />
    </g>
    <g
       opacity="0.580002"
       id="g252"
       clip-path="url(#clipPath253)">
      <path
         d="m 0,0 c 2.515,-5.249 6.971,-33.629 6.033,-38.085 -0.938,-4.457 4.002,-9.851 5.636,-3.284 1.635,6.567 1.4,12.681 1.4,12.681 0,0 3.518,-4.003 3.518,-8.225 0,-4.221 5.03,7.85 3.219,19.991 -1.811,12.142 -13.304,33.01 -13.304,33.01 0,0 -7.036,7.724 -4.456,1.871 2.58,-5.852 7.036,-21.567 7.036,-21.567 0,0 -7.974,16.64 -10.789,19.696 C -4.521,19.143 0,0 0,0"
         style="fill:#fabde1;fill-opacity:1;fill-rule:nonzero;stroke:none"
         transform="matrix(1.3333333,0,0,-1.3333333,555.70627,504.7524)"
         clip-path="url(#clipPath251)"
         id="path252" />
    </g>
    <g
       opacity="0.729996"
       id="g255"
       clip-path="url(#clipPath256)">
      <path
         d="m 0,0 c 8.039,-4.94 30.139,-44.934 32.749,-51.795 1.968,-5.175 3.637,-8.597 4.63,-13.132 0.992,-4.535 1.336,6.049 1.157,9.164 -0.179,3.115 -0.179,3.115 -1.323,8.598 -2.149,8.433 5.906,-5.51 7.004,-2.92 1.098,2.589 -11.649,28.894 -25.459,45.059 -13.811,16.165 -26.884,23.277 -26.884,23.277 0,0 -7.536,2.783 -0.324,-4.02 C -1.237,7.428 0,5.264 0,5.264 c 0,0 -10.993,6.5 -5.497,0.618 z"
         style="fill:#fabde1;fill-opacity:1;fill-rule:nonzero;stroke:none"
         transform="matrix(1.3333333,0,0,-1.3333333,563.0352,385.26867)"
         clip-path="url(#clipPath254)"
         id="path255" />
    </g>
  </g>
</svg>
