<?xml version="1.0" encoding="UTF-8" standalone="no"?>
<svg
   width="90"
   height="90"
   viewBox="0 0 90 90"
   fill="none"
   version="1.1"
   id="svg5"
   xmlns="http://www.w3.org/2000/svg"
   xmlns:svg="http://www.w3.org/2000/svg">
  <defs
     id="defs5" />
  <path
     fill-rule="evenodd"
     clip-rule="evenodd"
     d="m 44.999997,87.939712 c 24.651136,0 44.634857,-19.248315 44.634857,-42.992283 0,-23.743968 -19.983721,-42.9922836 -44.634857,-42.9922836 -24.651133,0 -44.63485083,19.2483156 -44.63485083,42.9922836 0,23.743968 19.98371783,42.992283 44.63485083,42.992283 z"
     fill="#eeeeee"
     id="path1"
     style="fill:#eeeeee;fill-opacity:1;stroke-width:0.973464" />
  <path
     id="path2"
     d="m 77.981871,42.111165 c -1.923809,0.08447 -3.822392,1.488382 -11.127454,3.011119 -5.193293,1.082494 -8.226151,1.27005 -20.2412,0.626373 -8.01085,-0.429219 -15.180832,0.313781 -21.505802,2.193565 -4.884402,1.451536 -8.307606,8.012837 -9.804449,12.844426 -1.584092,6.966619 -1.43737,10.98706 -0.804976,13.493439 0.01432,0.05676 0.0448,0.1141 0.09396,0.171058 2.353091,7.214178 15.914875,13.729919 32.021266,13.591545 12.817099,-0.110108 28.299857,-8.827264 32.767303,-15.958883 2.39297,-4.23961 3.642192,-8.59413 4.069352,-11.951019 0.563356,-4.426569 1.987933,-14.472715 -3.314626,-17.515996 -0.813698,-0.48073 -1.512103,-0.533783 -2.153376,-0.505627 z"
     style="fill:#666666;fill-opacity:1;stroke-width:1.29404" />
  <ellipse
     cx="37.803478"
     cy="35.410156"
     fill="#666666"
     id="circle3"
     rx="21.19545"
     ry="20.677109"
     style="stroke-width:1.30401" />
  <path
     d="m 16.92925,35.410156 c -2.569077,1.566422 -10.7259873,2.819612 -9.9553564,6.579051 0.6421703,3.132973 8.0285814,5.32599 14.1302564,5.32599 z"
     fill="#666666"
     id="path4"
     style="stroke-width:1.30401" />
  <path
     d="m 32.023026,35.096923 c 0,2.249301 -0.837964,4.072801 -2.890295,4.072801 -2.052331,0 -2.890294,-1.8235 -2.890294,-4.072801 0,-2.249301 0.837963,-4.072801 2.890294,-4.072801 2.052331,0 2.890295,1.8235 2.890295,4.072801 z"
     fill="#eeeeee"
     id="path5"
     style="stroke-width:1.30401" />
</svg>
