<svg width="90" height="90" viewBox="0 0 90 90" fill="none" xmlns="http://www.w3.org/2000/svg">
<path fill-rule="evenodd" clip-rule="evenodd" d="M45 90C69.8528 90 90 69.8528 90 45C90 20.1472 69.8528 0 45 0C20.1472 0 0 20.1472 0 45C0 69.8528 20.1472 90 45 90ZM20.9189 68.8378C18.8786 73.9386 19.4595 77.8378 19.9459 79.7838C20.5388 82.1554 64.0703 87.1225 66.4054 84.5928C69.3243 81.4306 70.7838 78.5676 72.2432 72.2432C73.281 67.7462 76.1351 57.1622 70.7838 54.7297C68.1265 53.5219 68.1081 55.345 60.5676 56.6757C55.4595 57.5771 56.2831 57.5401 45 57.1622C38.8328 56.9556 33.3243 57.4054 28.4595 58.8649C24.7027 59.9919 22.3784 65.1892 20.9189 68.8378Z" fill="#666666"/>
<path d="M19.9459 79.7838C19.4595 77.8378 18.8786 73.9386 20.9189 68.8378C22.3784 65.1892 24.7027 59.9919 28.4595 58.8649C33.3243 57.4054 38.8328 56.9556 45 57.1622C56.2831 57.5401 55.4595 57.5771 60.5676 56.6757C68.1081 55.345 68.1265 53.5219 70.7838 54.7297C76.1351 57.1622 73.281 67.7462 72.2432 72.2432C70.7838 78.5676 69.3243 81.4306 66.4054 84.5928C64.0703 87.1225 20.5388 82.1554 19.9459 79.7838Z" fill="#EEEEEE"/>
<path d="M67.6217 76.6216C71.0271 86.3514 58.5683 90 45 90C31.4317 90 16.5406 83.9189 20.4325 75.8919C24.3244 67.8649 31.4317 61.7838 45 61.7838C58.5683 61.7838 64.2163 66.8919 67.6217 76.6216Z" fill="#EEEEEE"/>
<circle cx="37.9459" cy="49.1351" r="16.0541" fill="#EEEEEE"/>
<path d="M22.1351 49.1351C20.1892 50.3513 14.0109 51.3243 14.5946 54.2432C15.081 56.6757 20.6757 58.3784 25.2973 58.3784L22.1351 49.1351Z" fill="#EEEEEE"/>
<path d="M33.5676 48.8919C33.5676 50.6383 32.9329 52.0541 31.3784 52.0541C29.8239 52.0541 29.1892 50.6383 29.1892 48.8919C29.1892 47.1455 29.8239 45.7297 31.3784 45.7297C32.9329 45.7297 33.5676 47.1455 33.5676 48.8919Z" fill="#666666"/>
</svg>
