<svg width="28" height="28" viewBox="0 0 28 28" fill="none" xmlns="http://www.w3.org/2000/svg">
<ellipse cx="13.3103" cy="13.0291" rx="5.5" ry="6" stroke="#666666" stroke-width="2"/>
<path d="M21.053 19.1184L24.3103 22.0291" stroke="#666666" stroke-width="2"/>
<path d="M6.91277 20.4629L4.3103 24.0291" stroke="#666666" stroke-width="2"/>
<path d="M23.3103 3.02908L20.5339 6.11561" stroke="#666666" stroke-width="2"/>
<path d="M14.3583 22.7077L14.8103 27.0291" stroke="#666666" stroke-width="2"/>
<path d="M13.7761 1.52588e-05L13.7761 4.02908" stroke="#666666" stroke-width="2"/>
<path d="M-1.27772e-05 13.0036L4.3103 13.0036" stroke="#666666" stroke-width="2"/>
<path d="M23.2897 13.0036L27.3102 13.0036" stroke="#666666" stroke-width="2"/>
<path d="M4.16748 2.81546L6.8103 6.02908" stroke="#666666" stroke-width="2"/>
<line x1="8.44777" y1="12.4527" x2="17.4527" y2="11.5522" stroke="#666666" stroke-linecap="round"/>
<path d="M12.4999 12.5L9 12.5C9.5 14 10 14.5888 10.9999 14.5C11.8404 14.4254 12.4999 13.5 12.4999 12.5Z" fill="#666666" stroke="#666666"/>
<path d="M17.4999 12.3082L14 12.3082C14.5 13.8082 15 14.3969 15.9999 14.3082C16.8404 14.2336 17.4999 13.3082 17.4999 12.3082Z" fill="#666666" stroke="#666666"/>
<path d="M12 16C12 16 12.6529 16.5 13.5 16.5C14.3471 16.5 15 16 15 16" stroke="#666666" stroke-linecap="round"/>
</svg>
