<svg width="28" height="28" viewBox="0 0 28 28" fill="none" xmlns="http://www.w3.org/2000/svg">
<ellipse cx="13.3103" cy="13.0291" rx="5.5" ry="6" stroke="#E5B3B5" stroke-width="2"/>
<path d="M21.053 19.1184L24.3103 22.0291" stroke="#E5B3B5" stroke-width="2"/>
<path d="M6.91277 20.4629L4.3103 24.0291" stroke="#E5B3B5" stroke-width="2"/>
<path d="M23.3103 3.02907L20.5339 6.1156" stroke="#E5B3B5" stroke-width="2"/>
<path d="M14.3583 22.7077L14.8103 27.0291" stroke="#E5B3B5" stroke-width="2"/>
<path d="M13.7761 1.52588e-05L13.7761 4.02908" stroke="#E5B3B5" stroke-width="2"/>
<path d="M-1.27772e-05 13.0036L4.3103 13.0036" stroke="#E5B3B5" stroke-width="2"/>
<path d="M23.2897 13.0036L27.3102 13.0036" stroke="#E5B3B5" stroke-width="2"/>
<path d="M4.16748 2.81546L6.8103 6.02908" stroke="#E5B3B5" stroke-width="2"/>
<line x1="8.44777" y1="12.3757" x2="17.4527" y2="11.4752" stroke="#E5B3B5" stroke-linecap="round"/>
<path d="M12.4999 12.4229L9 12.4229C9.5 13.9229 10 14.5117 10.9999 14.4229C11.8404 14.3483 12.4999 13.4229 12.4999 12.4229Z" fill="#E5B3B5" stroke="#E5B3B5"/>
<path d="M17.4999 12.2311L14 12.2311C14.5 13.7311 15 14.3199 15.9999 14.2311C16.8404 14.1565 17.4999 13.2311 17.4999 12.2311Z" fill="#E5B3B5" stroke="#E5B3B5"/>
<path d="M12 15.9229C12 15.9229 12.6529 16.4229 13.5 16.4229C14.3471 16.4229 15 15.9229 15 15.9229" stroke="#E5B3B5" stroke-linecap="round"/>
</svg>
